<?xml version="1.0" encoding="UTF-8" standalone="no"?>
<svg
   xmlns:dc="http://purl.org/dc/elements/1.1/"
   xmlns:cc="http://creativecommons.org/ns#"
   xmlns:rdf="http://www.w3.org/1999/02/22-rdf-syntax-ns#"
   xmlns:svg="http://www.w3.org/2000/svg"
   xmlns="http://www.w3.org/2000/svg"
   xmlns:sodipodi="http://sodipodi.sourceforge.net/DTD/sodipodi-0.dtd"
   xmlns:inkscape="http://www.inkscape.org/namespaces/inkscape"
   width="1000"
   height="1000"
   version="1.1"
   viewBox="0 0 750 750"
   id="svg24"
   sodipodi:docname="noun-ecg-screen-982908.svg"
   inkscape:export-filename="/data/projects/programming/alien-rpg-tools/frontend/src/assets/icon_life-support.png"
   inkscape:export-xdpi="24.576"
   inkscape:export-ydpi="24.576"
   inkscape:version="0.92.5 (2060ec1f9f, 2020-04-08)">
  <metadata
     id="metadata30">
    <rdf:RDF>
      <cc:Work
         rdf:about="">
        <dc:format>image/svg+xml</dc:format>
        <dc:type
           rdf:resource="http://purl.org/dc/dcmitype/StillImage" />
        <dc:title></dc:title>
      </cc:Work>
    </rdf:RDF>
  </metadata>
  <defs
     id="defs28" />
  <sodipodi:namedview
     pagecolor="#ffffff"
     bordercolor="#666666"
     borderopacity="1"
     objecttolerance="10"
     gridtolerance="10"
     guidetolerance="10"
     inkscape:pageopacity="0"
     inkscape:pageshadow="2"
     inkscape:window-width="3840"
     inkscape:window-height="2062"
     id="namedview26"
     showgrid="false"
     units="px"
     inkscape:zoom="0.25285714"
     inkscape:cx="-1129.096"
     inkscape:cy="466.66667"
     inkscape:window-x="0"
     inkscape:window-y="0"
     inkscape:window-maximized="1"
     inkscape:current-layer="svg24" />
  <g
     id="g43"
     style="fill:#b3b3b3"
     transform="translate(25.014,95.015)">
    <g
       id="g22"
       style="fill:#b3b3b3">
      <path
         id="path2"
         d="m 317.57,456.68 c 0,5.5156 -4.4727,9.9883 -9.9883,9.9883 -5.5117,0 -9.9844,-4.4727 -9.9844,-9.9883 0,-5.5156 4.4727,-9.9883 9.9844,-9.9883 5.5156,0 9.9883,4.4727 9.9883,9.9883"
         style="fill:#b3b3b3"
         inkscape:connector-curvature="0" />
      <path
         id="path4"
         d="m 357.91,456.68 c 0,5.5156 -4.4727,9.9883 -9.9883,9.9883 -5.5156,0 -9.9844,-4.4727 -9.9844,-9.9883 0,-5.5156 4.4688,-9.9883 9.9844,-9.9883 5.5156,0 9.9883,4.4727 9.9883,9.9883"
         style="fill:#b3b3b3"
         inkscape:connector-curvature="0" />
      <path
         id="path6"
         d="m 402.38,456.68 c 0,5.5156 -4.4688,9.9883 -9.9844,9.9883 -5.5156,0 -9.9883,-4.4727 -9.9883,-9.9883 0,-5.5156 4.4727,-9.9883 9.9883,-9.9883 5.5156,0 9.9844,4.4727 9.9844,9.9883"
         style="fill:#b3b3b3"
         inkscape:connector-curvature="0" />
      <path
         id="path8"
         d="M 577.5,32.828 H 122.94 c -30.988,0 -51.031,20.043 -51.031,51.055 v 392.72 c 0,30.215 20.324,50.539 50.586,50.539 h 455.49 c 29.492,0 50.074,-20.625 50.074,-50.098 l 0.004,-393.65 C 628.0396,53.152 607.692,32.828 577.501,32.828 Z m 31.898,444.22 c 0,19.391 -12.039,31.43 -31.406,31.43 h -455.49 c -19.973,0 -31.898,-11.898 -31.898,-31.852 V 83.906 c 0,-20.578 11.785,-32.387 32.34,-32.387 h 454.54 c 19.949,0 31.898,11.922 31.898,31.875 v 393.66 z"
         style="fill:#b3b3b3"
         inkscape:connector-curvature="0" />
      <path
         id="path10"
         d="M 572.65,79.102 H 127.61 c -5.1562,0 -9.332,4.1992 -9.332,9.332 v 306.37 c 0,5.1562 4.1992,9.332 9.332,9.332 h 445.01 c 5.1562,0 9.332,-4.1992 9.332,-9.332 l 0.004,-306.37 c 0.0234,-5.1562 -4.1758,-9.332 -9.3086,-9.332 z m -9.3594,306.36 h -426.32 v -287.7 h 426.32 z"
         style="fill:#b3b3b3"
         inkscape:connector-curvature="0" />
      <path
         id="path12"
         d="m 153.6,424.34 c -8.6328,0.0469 -16.73,3.4297 -22.75,9.4961 -5.9961,6.0898 -9.2852,14.188 -9.2383,22.844 0.11719,17.852 14.559,32.387 32.223,32.387 h 0.42187 c 17.617,-0.23438 32.012,-14.77 32.082,-32.434 0.0234,-8.5156 -3.3125,-16.566 -9.3555,-22.656 -6.2305,-6.2305 -14.469,-9.6367 -23.383,-9.6367 z m 0.39844,46.012 -0.1875,9.332 v -9.332 c -7.4219,0 -13.512,-6.1836 -13.535,-13.789 -0.0469,-7.5586 5.832,-13.535 13.441,-13.559 3.7812,0 7.3281,1.4688 9.9883,4.1289 2.543,2.543 3.9414,5.9023 3.9219,9.4258 -0.0273,7.4023 -6.2539,13.703 -13.629,13.793 z"
         style="fill:#b3b3b3"
         inkscape:connector-curvature="0" />
      <path
         id="path14"
         d="m 548.92,424.34 c -17.664,0 -32.176,14.352 -32.387,31.988 -0.0937,8.6094 3.2656,16.777 9.4023,22.984 6.207,6.2773 14.352,9.707 23.008,9.707 8.656,0 16.801,-3.4062 22.891,-9.6133 6.1602,-6.2539 9.4727,-14.465 9.3789,-23.148 -0.16406,-17.918 -14.375,-31.918 -32.293,-31.918 z m 9.6836,41.93 c -5.2031,5.25 -14.094,5.2969 -19.367,-0.0937 -2.6367,-2.6367 -4.0586,-6.0898 -4.0117,-9.6836 0.0703,-7.4219 6.2539,-13.488 13.742,-13.488 7.6758,0 13.535,5.7617 13.602,13.441 0.0469,3.7109 -1.375,7.1875 -3.9648,9.8242 z"
         style="fill:#b3b3b3"
         inkscape:connector-curvature="0" />
      <path
         id="path16"
         d="m 486.34,247.26 h -31.477 c -7.6523,0 -14.793,2.8711 -19.039,7.6055 l -7.9336,8.7734 -20.836,-14.559 c -2.1719,-1.4922 -4.8984,-1.9609 -7.375,-1.4688 -2.5664,0.55859 -4.7617,2.2148 -6.0664,4.457 l -8.1211,14.117 -24.195,-87.688 c -1.0508,-3.8281 -4.4102,-6.5586 -8.3516,-6.8359 -4.1992,0.11719 -7.6523,2.0078 -9.2148,5.6484 l -26.602,61.973 -25.973,-21.234 c -2.1016,-1.7031 -4.8086,-2.5195 -7.5117,-1.9609 -2.6602,0.44531 -5.0156,2.0781 -6.418,4.3867 -5.0391,8.4453 -12.832,20.836 -17.289,26.809 h -39.875 c -5.1562,0 -9.332,4.1992 -9.332,9.332 0,5.1328 4.1992,9.332 9.332,9.332 h 44.262 c 2.5195,0 4.9219,-1.0273 6.6953,-2.8242 4.082,-4.2227 11.387,-15.469 16.613,-23.871 l 27.301,22.352 c 2.2148,1.8203 5.25,2.543 8.1211,1.8438 2.8477,-0.69922 5.2266,-2.6836 6.3477,-5.3906 l 20.977,-48.93 23.078,83.602 c 1.0039,3.6172 4.1055,6.3242 7.8398,6.7656 0.39844,0.0703 0.76953,0.0937 1.168,0.0937 3.3125,0 6.418,-1.7734 8.0977,-4.6914 l 14.164,-24.711 19.203,13.441 c 3.8984,2.6602 9.1484,2.1016 12.273,-1.3984 l 13.465,-14.934 c 0.375,-0.39844 2.2383,-1.4219 5.1797,-1.4219 h 31.477 c 5.1562,0 9.332,-4.1992 9.332,-9.332 -0.004,-5.125 -4.1602,-9.2812 -9.3164,-9.2812 z"
         style="fill:#b3b3b3"
         inkscape:connector-curvature="0" />
      <path
         id="path18"
         d="m 214.67,240.12 c 4.9688,-1.3086 7.957,-6.3945 6.6484,-11.387 -2.1445,-8.2617 -3.1953,-16.871 -3.1953,-26.32 0,-39.293 31.965,-71.262 71.285,-71.262 17.641,0 34.602,6.5586 47.762,18.457 2.0312,1.8438 3.9883,3.8281 5.832,5.9258 1.7734,2.0078 4.3398,3.1719 7,3.1719 h 0.0469 c 2.6836,-0.0234 5.2734,-1.2148 7.0234,-3.2422 1.7969,-2.0781 3.7578,-4.0352 5.7148,-5.832 27.441,-24.781 72.262,-23.59 98.188,2.4258 13.488,13.465 20.906,31.359 20.906,50.352 0,9.5898 -1.0273,18.223 -3.1719,26.391 -1.3281,4.9922 1.6562,10.102 6.6484,11.387 0.79297,0.21094 1.5859,0.32812 2.3789,0.32812 4.1523,0 7.9336,-2.7773 9.0312,-6.9766 2.543,-9.7539 3.8047,-19.926 3.8047,-31.125 0,-23.988 -9.3555,-46.574 -26.367,-63.582 -32.762,-32.762 -89.344,-34.301 -123.97,-2.9883 -0.11719,0.0469 -0.1875,0.11719 -0.23438,0.1875 -0.0937,-0.0937 -0.1875,-0.16406 -0.28125,-0.25781 -16.613,-15.027 -38.035,-23.309 -60.316,-23.309 -49.605,0 -89.949,40.344 -89.949,89.926 0,11.082 1.2617,21.234 3.8281,31.059 1.2812,4.9883 6.3203,8 11.387,6.6719 z"
         style="fill:#b3b3b3"
         inkscape:connector-curvature="0" />
      <path
         id="path20"
         d="m 447.21,280.16 c -2.2148,2.2852 -4.5742,4.6211 -7.0703,7 -31.711,30.332 -82.414,66.242 -88.082,70.234 h -0.0469 c -0.46484,0 -4.0352,-0.0469 -4.082,-0.0234 -6.4883,-4.5742 -64.422,-45.5 -95.105,-77.211 -3.5703,-3.7109 -9.4727,-3.7812 -13.184,-0.21094 -3.6875,3.5703 -3.8047,9.4961 -0.21094,13.184 31.242,32.246 86.941,71.867 97.742,79.449 3.7578,2.6602 8.2148,4.1055 12.832,4.1055 4.6211,0 9.0781,-1.4219 12.809,-4.0586 5.7852,-4.082 57.539,-40.738 90.23,-72.008 2.6602,-2.543 5.1797,-5.0391 7.5586,-7.4883 3.5703,-3.6875 3.5,-9.5898 -0.21094,-13.184 -3.6367,-3.5703 -9.5859,-3.4766 -13.18,0.21094 z"
         style="fill:#b3b3b3"
         inkscape:connector-curvature="0" />
    </g>
  </g>
</svg>
