<?xml version="1.0" encoding="UTF-8" standalone="no"?>
<svg
   xmlns:dc="http://purl.org/dc/elements/1.1/"
   xmlns:cc="http://creativecommons.org/ns#"
   xmlns:rdf="http://www.w3.org/1999/02/22-rdf-syntax-ns#"
   xmlns:svg="http://www.w3.org/2000/svg"
   xmlns="http://www.w3.org/2000/svg"
   xmlns:sodipodi="http://sodipodi.sourceforge.net/DTD/sodipodi-0.dtd"
   xmlns:inkscape="http://www.inkscape.org/namespaces/inkscape"
   width="1000"
   height="1000"
   version="1.1"
   viewBox="0 0 750.00002 750.00002"
   id="svg137"
   sodipodi:docname="noun-pci-card-2575216.svg"
   inkscape:export-filename="/data/projects/programming/alien-rpg-tools/frontend/src/assets/icon_utility.png"
   inkscape:export-xdpi="24.576"
   inkscape:export-ydpi="24.576"
   inkscape:version="0.92.5 (2060ec1f9f, 2020-04-08)">
  <metadata
     id="metadata141">
    <rdf:RDF>
      <cc:Work
         rdf:about="">
        <dc:format>image/svg+xml</dc:format>
        <dc:type
           rdf:resource="http://purl.org/dc/dcmitype/StillImage" />
        <dc:title></dc:title>
      </cc:Work>
    </rdf:RDF>
  </metadata>
  <sodipodi:namedview
     pagecolor="#ffffff"
     bordercolor="#666666"
     borderopacity="1"
     objecttolerance="10"
     gridtolerance="10"
     guidetolerance="10"
     inkscape:pageopacity="0"
     inkscape:pageshadow="2"
     inkscape:window-width="3840"
     inkscape:window-height="2062"
     id="namedview139"
     showgrid="false"
     units="px"
     inkscape:zoom="0.25285714"
     inkscape:cx="-1198.3051"
     inkscape:cy="466.66667"
     inkscape:window-x="0"
     inkscape:window-y="0"
     inkscape:window-maximized="1"
     inkscape:current-layer="svg137" />
  <defs
     id="defs59">
    <symbol
       id="s"
       overflow="visible"
       style="overflow:visible">
      <path
         d="m 28,-1.6719 c -1.4375,0.75 -2.9453,1.3125 -4.5156,1.6875 -1.5625,0.38281 -3.1953,0.57812 -4.8906,0.57812 -5.0742,0 -9.0938,-1.4141 -12.062,-4.25 -2.9688,-2.8438 -4.4531,-6.6914 -4.4531,-11.547 0,-4.875 1.4844,-8.7266 4.4531,-11.562 2.9688,-2.832 6.9883,-4.25 12.062,-4.25 1.6953,0 3.3281,0.19531 4.8906,0.57812 1.5703,0.375 3.0781,0.9375 4.5156,1.6875 v 6.2969 c -1.4609,-0.98828 -2.8984,-1.7109 -4.3125,-2.1719 -1.4062,-0.46875 -2.8984,-0.70312 -4.4688,-0.70312 -2.8047,0 -5.0078,0.90234 -6.6094,2.7031 -1.6055,1.793 -2.4062,4.2656 -2.4062,7.4219 0,3.1484 0.80078,5.6172 2.4062,7.4062 1.6016,1.793 3.8047,2.6875 6.6094,2.6875 1.5703,0 3.0625,-0.22656 4.4688,-0.6875 1.4141,-0.45703 2.8516,-1.1875 4.3125,-2.1875 z"
         id="path2"
         inkscape:connector-curvature="0" />
    </symbol>
    <symbol
       id="c"
       overflow="visible"
       style="overflow:visible">
      <path
         d="m 20.484,-16.641 c -0.63672,-0.28906 -1.2734,-0.50781 -1.9062,-0.65625 -0.625,-0.14453 -1.2617,-0.21875 -1.9062,-0.21875 -1.875,0 -3.3242,0.60547 -4.3438,1.8125 -1.0117,1.2109 -1.5156,2.9336 -1.5156,5.1719 V -6e-4 H 3.5153 v -22.859 h 7.2969 v 3.75 c 0.9375,-1.4883 2.0156,-2.5781 3.2344,-3.2656 1.2188,-0.6875 2.6758,-1.0312 4.375,-1.0312 0.25,0 0.51562,0.01172 0.79688,0.03125 0.28906,0.02344 0.70703,0.0625 1.25,0.125 z"
         id="path5"
         inkscape:connector-curvature="0" />
    </symbol>
    <symbol
       id="b"
       overflow="visible"
       style="overflow:visible">
      <path
         d="m 26.328,-11.484 v 2.0781 H 9.25 c 0.17578,1.7109 0.78906,2.9961 1.8438,3.8594 1.0625,0.85547 2.5469,1.2812 4.4531,1.2812 1.5391,0 3.1133,-0.22266 4.7188,-0.67188 1.6133,-0.45703 3.2734,-1.1484 4.9844,-2.0781 v 5.625 c -1.7305,0.65625 -3.4609,1.1523 -5.1875,1.4844 -1.7305,0.33203 -3.4609,0.5 -5.1875,0.5 -4.1367,0 -7.3516,-1.0508 -9.6406,-3.1562 -2.293,-2.1016 -3.4375,-5.0508 -3.4375,-8.8438 0,-3.7266 1.125,-6.6602 3.375,-8.7969 2.25,-2.1328 5.3477,-3.2031 9.2969,-3.2031 3.5938,0 6.4688,1.0859 8.625,3.25 2.1562,2.1562 3.2344,5.0469 3.2344,8.6719 z m -7.5156,-2.4375 c 0,-1.3828 -0.40625,-2.5 -1.2188,-3.3438 -0.80469,-0.85156 -1.8594,-1.2812 -3.1719,-1.2812 -1.4062,0 -2.5547,0.40234 -3.4375,1.2031 -0.88672,0.79297 -1.4375,1.9336 -1.6562,3.4219 z"
         id="path8"
         inkscape:connector-curvature="0" />
    </symbol>
    <symbol
       id="j"
       overflow="visible"
       style="overflow:visible">
      <path
         d="m 13.75,-10.281 c -1.5234,0 -2.668,0.26172 -3.4375,0.78125 -0.77344,0.51172 -1.1562,1.2734 -1.1562,2.2812 0,0.91797 0.30469,1.6406 0.92188,2.1719 0.625,0.52344 1.4883,0.78125 2.5938,0.78125 1.375,0 2.5312,-0.48828 3.4688,-1.4688 0.9375,-0.98828 1.4062,-2.2266 1.4062,-3.7188 v -0.82812 z m 11.172,-2.7656 V 4e-4 h -7.375 v -3.3906 c -0.98047,1.3867 -2.0859,2.3984 -3.3125,3.0312 -1.2188,0.63281 -2.7031,0.95312 -4.4531,0.95312 -2.375,0 -4.3047,-0.6875 -5.7812,-2.0625 -1.4688,-1.3828 -2.2031,-3.1797 -2.2031,-5.3906 0,-2.6758 0.92188,-4.6406 2.7656,-5.8906 1.8438,-1.2578 4.7383,-1.8906 8.6875,-1.8906 h 4.2969 v -0.5625 c 0,-1.1562 -0.46094,-2 -1.375,-2.5312 -0.90625,-0.53906 -2.3242,-0.8125 -4.25,-0.8125 -1.5625,0 -3.0234,0.15625 -4.375,0.46875 -1.3438,0.3125 -2.5938,0.78125 -3.75,1.4062 v -5.5781 c 1.5625,-0.375 3.1289,-0.66016 4.7031,-0.85938 1.582,-0.19531 3.1641,-0.29688 4.75,-0.29688 4.1133,0 7.0859,0.8125 8.9219,2.4375 1.832,1.625 2.75,4.2656 2.75,7.9219 z"
         id="path11"
         inkscape:connector-curvature="0" />
    </symbol>
    <symbol
       id="a"
       overflow="visible"
       style="overflow:visible">
      <path
         d="m 11.484,-29.344 v 6.4844 h 7.5312 v 5.2188 H 11.484 v 9.7031 c 0,1.0625 0.20703,1.7812 0.625,2.1562 0.42578,0.375 1.2695,0.5625 2.5312,0.5625 h 3.75 V -2e-4 H 12.1246 C 9.2379,-2e-4 7.191,-0.59786 5.984,-1.7971 4.7848,-3.0041 4.1871,-5.051 4.1871,-7.9377 v -9.7031 H 0.5465 v -5.2188 h 3.6406 v -6.4844 z"
         id="path14"
         inkscape:connector-curvature="0" />
    </symbol>
    <symbol
       id="i"
       overflow="visible"
       style="overflow:visible">
      <path
         d="M 19.062,-19.516 V -31.75 h 7.3438 V 0 H 19.062 v -3.3125 c -1.0117,1.3555 -2.1211,2.3438 -3.3281,2.9688 -1.2109,0.625 -2.6094,0.9375 -4.2031,0.9375 -2.8125,0 -5.125,-1.1172 -6.9375,-3.3594 -1.8125,-2.2383 -2.7188,-5.1172 -2.7188,-8.6406 0,-3.5195 0.90625,-6.3984 2.7188,-8.6406 1.8125,-2.2383 4.125,-3.3594 6.9375,-3.3594 1.5703,0 2.9688,0.32031 4.1875,0.95312 1.2188,0.625 2.332,1.6055 3.3438,2.9375 z m -4.8125,14.797 c 1.5625,0 2.7539,-0.56641 3.5781,-1.7031 0.82031,-1.1445 1.2344,-2.8047 1.2344,-4.9844 0,-2.1758 -0.41406,-3.8359 -1.2344,-4.9844 -0.82422,-1.1445 -2.0156,-1.7188 -3.5781,-1.7188 -1.5547,0 -2.7422,0.57422 -3.5625,1.7188 -0.82422,1.1484 -1.2344,2.8086 -1.2344,4.9844 0,2.1797 0.41016,3.8398 1.2344,4.9844 0.82031,1.1367 2.0078,1.7031 3.5625,1.7031 z"
         id="path17"
         inkscape:connector-curvature="0" />
    </symbol>
    <symbol
       id="h"
       overflow="visible"
       style="overflow:visible">
      <path
         d="m 15.672,-4.7188 c 1.5625,0 2.7539,-0.56641 3.5781,-1.7031 0.82031,-1.1445 1.2344,-2.8047 1.2344,-4.9844 0,-2.1758 -0.41406,-3.8359 -1.2344,-4.9844 -0.82422,-1.1445 -2.0156,-1.7188 -3.5781,-1.7188 -1.5625,0 -2.7656,0.57812 -3.6094,1.7344 -0.83594,1.1484 -1.25,2.8047 -1.25,4.9688 0,2.168 0.41406,3.8242 1.25,4.9688 0.84375,1.1484 2.0469,1.7188 3.6094,1.7188 z m -4.8594,-14.797 c 1.0078,-1.332 2.125,-2.3125 3.3438,-2.9375 1.2266,-0.63281 2.6406,-0.95312 4.2344,-0.95312 2.8125,0 5.125,1.1211 6.9375,3.3594 1.8125,2.2422 2.7188,5.1211 2.7188,8.6406 0,3.5234 -0.90625,6.4023 -2.7188,8.6406 -1.8125,2.2422 -4.125,3.3594 -6.9375,3.3594 -1.5938,0 -3.0078,-0.32031 -4.2344,-0.95312 -1.2188,-0.63281 -2.3359,-1.6172 -3.3438,-2.9531 v 3.3125 H 3.5157 v -31.75 h 7.2969 z"
         id="path20"
         inkscape:connector-curvature="0" />
    </symbol>
    <symbol
       id="g"
       overflow="visible"
       style="overflow:visible">
      <path
         d="m 0.51562,-22.859 h 7.2969 l 6.1406,15.516 5.2344,-15.516 h 7.2969 l -9.6094,25.016 c -0.96875,2.5508 -2.0938,4.332 -3.375,5.3438 -1.2812,1.0078 -2.9805,1.5156 -5.0938,1.5156 H 4.18742 V 4.2195 h 2.2812 c 1.2383,0 2.1406,-0.19922 2.7031,-0.59375 0.5625,-0.38672 1,-1.0898 1.3125,-2.1094 l 0.20312,-0.64062 z"
         id="path23"
         inkscape:connector-curvature="0" />
    </symbol>
    <symbol
       id="f"
       overflow="visible"
       style="overflow:visible">
      <path
         d="m 0.20312,-30.469 h 7.9062 l 8.0781,22.484 8.0625,-22.484 h 7.8906 L 20.85952,0 h -9.375 z"
         id="path26"
         inkscape:connector-curvature="0" />
    </symbol>
    <symbol
       id="r"
       overflow="visible"
       style="overflow:visible">
      <path
         d="m 21.984,-22.141 v 5.9531 c -1,-0.67578 -2,-1.1758 -3,-1.5 -1,-0.33203 -2.0391,-0.5 -3.1094,-0.5 -2.043,0 -3.6328,0.60156 -4.7656,1.7969 -1.1367,1.1875 -1.7031,2.8516 -1.7031,4.9844 0,2.1367 0.56641,3.8047 1.7031,5 1.1328,1.1875 2.7227,1.7812 4.7656,1.7812 1.1445,0 2.2266,-0.17188 3.25,-0.51562 1.0312,-0.34375 1.9844,-0.84766 2.8594,-1.5156 v 5.9844 c -1.1484,0.41797 -2.3086,0.72656 -3.4844,0.9375 -1.1797,0.21875 -2.3594,0.32812 -3.5469,0.32812 -4.1172,0 -7.3398,-1.0547 -9.6719,-3.1719 -2.3242,-2.1133 -3.4844,-5.0547 -3.4844,-8.8281 0,-3.7695 1.1602,-6.7109 3.4844,-8.8281 2.332,-2.1133 5.5547,-3.1719 9.6719,-3.1719 1.1953,0 2.3789,0.10547 3.5469,0.3125 1.1641,0.21094 2.3281,0.52734 3.4844,0.95312 z"
         id="path29"
         inkscape:connector-curvature="0" />
    </symbol>
    <symbol
       id="e"
       overflow="visible"
       style="overflow:visible">
      <path
         d="m 14.391,-18.188 c -1.625,0 -2.8672,0.58594 -3.7188,1.75 -0.84375,1.168 -1.2656,2.8438 -1.2656,5.0312 0,2.1874 0.42188,3.8672 1.2656,5.0312 0.85156,1.168 2.0938,1.75 3.7188,1.75 1.5938,0 2.8125,-0.58203 3.6562,-1.75 0.84375,-1.1641 1.2656,-2.8438 1.2656,-5.0312 0,-2.1874 -0.42188,-3.8633 -1.2656,-5.0312 -0.84375,-1.1641 -2.0625,-1.75 -3.6562,-1.75 z m 0,-5.2188 c 3.9258,0 6.9922,1.0625 9.2031,3.1875 2.2188,2.1172 3.3281,5.0547 3.3281,8.8125 0,3.75 -1.1094,6.6875 -3.3281,8.8125 -2.2109,2.125 -5.2773,3.1875 -9.2031,3.1875 -3.9492,0 -7.0391,-1.0625 -9.2656,-3.1875 -2.2188,-2.125 -3.3281,-5.0625 -3.3281,-8.8125 0,-3.7578 1.1094,-6.6953 3.3281,-8.8125 2.2266,-2.125 5.3164,-3.1875 9.2656,-3.1875 z"
         id="path32"
         inkscape:connector-curvature="0" />
    </symbol>
    <symbol
       id="q"
       overflow="visible"
       style="overflow:visible">
      <path
         d="m 21.375,-22.141 v 5.5469 c -1.5742,-0.65625 -3.0898,-1.1445 -4.5469,-1.4688 -1.4492,-0.32031 -2.8203,-0.48438 -4.1094,-0.48438 -1.3867,0 -2.418,0.17188 -3.0938,0.51562 -0.67969,0.34375 -1.0156,0.88281 -1.0156,1.6094 0,0.58594 0.25391,1.0312 0.76562,1.3438 0.50781,0.3125 1.4258,0.54297 2.75,0.6875 l 1.2812,0.1875 c 3.7383,0.48047 6.2539,1.2656 7.5469,2.3594 1.3008,1.0859 1.9531,2.7891 1.9531,5.1094 0,2.4375 -0.90234,4.2734 -2.7031,5.5 -1.793,1.2188 -4.4766,1.8281 -8.0469,1.8281 -1.5117,0 -3.0742,-0.12109 -4.6875,-0.35938 -1.6055,-0.23828 -3.2578,-0.59766 -4.9531,-1.0781 v -5.5469 c 1.4453,0.71094 2.9375,1.2422 4.4688,1.5938 1.5312,0.35547 3.0859,0.53125 4.6719,0.53125 1.4258,0 2.5,-0.19531 3.2188,-0.59375 0.71875,-0.39453 1.0781,-0.97656 1.0781,-1.75 0,-0.65625 -0.25,-1.1406 -0.75,-1.4531 -0.49219,-0.32031 -1.4766,-0.57031 -2.9531,-0.75 l -1.2969,-0.17188 c -3.25,-0.40625 -5.5312,-1.1562 -6.8438,-2.25 -1.3047,-1.1016 -1.9531,-2.7812 -1.9531,-5.0312 0,-2.4141 0.82812,-4.207 2.4844,-5.375 1.6641,-1.1758 4.2109,-1.7656 7.6406,-1.7656 1.3516,0 2.7695,0.10547 4.25,0.3125 1.4766,0.19922 3.0938,0.51562 4.8438,0.95312 z"
         id="path35"
         inkscape:connector-curvature="0" />
    </symbol>
    <symbol
       id="d"
       overflow="visible"
       style="overflow:visible">
      <path
         d="m 3.8438,-30.469 h 13.031 c 3.875,0 6.8477,0.85938 8.9219,2.5781 2.082,1.7188 3.125,4.1719 3.125,7.3594 0,3.1992 -1.043,5.6562 -3.125,7.375 -2.0742,1.7188 -5.0469,2.5781 -8.9219,2.5781 H 11.6873 V -4e-4 H 3.8435 Z m 7.8438,5.6875 v 8.5156 h 4.3594 c 1.5195,0 2.6914,-0.36719 3.5156,-1.1094 0.83203,-0.73828 1.25,-1.7891 1.25,-3.1562 0,-1.3633 -0.41797,-2.4102 -1.25,-3.1406 -0.82422,-0.73828 -1.9961,-1.1094 -3.5156,-1.1094 z"
         id="path38"
         inkscape:connector-curvature="0" />
    </symbol>
    <symbol
       id="p"
       overflow="visible"
       style="overflow:visible">
      <path
         d="m 3.5156,-22.859 h 7.2969 V 0 H 3.5156 Z m 0,-8.8906 h 7.2969 v 5.9531 H 3.5156 Z"
         id="path41"
         inkscape:connector-curvature="0" />
    </symbol>
    <symbol
       id="o"
       overflow="visible"
       style="overflow:visible">
      <path
         d="M 26.484,-13.922 V 0 h -7.3438 v -10.656 c 0,-1.9688 -0.04687,-3.3281 -0.14062,-4.0781 -0.08594,-0.75 -0.23438,-1.3008 -0.45312,-1.6562 -0.28125,-0.47656 -0.66797,-0.84766 -1.1562,-1.1094 -0.49219,-0.25781 -1.0469,-0.39062 -1.6719,-0.39062 -1.5312,0 -2.7344,0.58984 -3.6094,1.7656 -0.86719,1.168 -1.2969,2.793 -1.2969,4.875 v 11.25 h -7.2969 v -22.859 h 7.2969 v 3.3438 c 1.1016,-1.332 2.2734,-2.3125 3.5156,-2.9375 1.2383,-0.63281 2.6016,-0.95312 4.0938,-0.95312 2.6445,0 4.6484,0.8125 6.0156,2.4375 1.3633,1.6172 2.0469,3.9648 2.0469,7.0469 z"
         id="path44"
         inkscape:connector-curvature="0" />
    </symbol>
    <symbol
       id="n"
       overflow="visible"
       style="overflow:visible">
      <path
         d="m 18.547,-31.75 v 4.7969 h -4.0312 c -1.043,0 -1.7656,0.1875 -2.1719,0.5625 -0.40625,0.36719 -0.60938,1.0117 -0.60938,1.9375 v 1.5938 h 6.25 v 5.2188 h -6.25 V 5e-4 h -7.3125 v -17.641 h -3.625 v -5.2188 h 3.625 v -1.5938 c 0,-2.4883 0.69141,-4.3281 2.0781,-5.5156 1.3945,-1.1875 3.5469,-1.7812 6.4531,-1.7812 z"
         id="path47"
         inkscape:connector-curvature="0" />
    </symbol>
    <symbol
       id="m"
       overflow="visible"
       style="overflow:visible">
      <path
         d="M 26.484,-13.922 V 0 h -7.3438 v -10.609 c 0,-2 -0.04687,-3.375 -0.14062,-4.125 -0.08594,-0.75 -0.23438,-1.3008 -0.45312,-1.6562 -0.28125,-0.47656 -0.66797,-0.84766 -1.1562,-1.1094 -0.49219,-0.25781 -1.0469,-0.39062 -1.6719,-0.39062 -1.5312,0 -2.7344,0.58984 -3.6094,1.7656 -0.86719,1.168 -1.2969,2.793 -1.2969,4.875 v 11.25 h -7.2969 v -31.75 h 7.2969 v 12.234 c 1.1016,-1.332 2.2734,-2.3125 3.5156,-2.9375 1.2383,-0.63281 2.6016,-0.95312 4.0938,-0.95312 2.6445,0 4.6484,0.8125 6.0156,2.4375 1.3633,1.6172 2.0469,3.9648 2.0469,7.0469 z"
         id="path50"
         inkscape:connector-curvature="0" />
    </symbol>
    <symbol
       id="l"
       overflow="visible"
       style="overflow:visible">
      <path
         d="m 3.8438,-30.469 h 8.7656 l 11.078,20.891 v -20.891 h 7.4531 V 0 H 22.3749 L 11.2809,-20.906 V 0 H 3.8434 Z"
         id="path53"
         inkscape:connector-curvature="0" />
    </symbol>
    <symbol
       id="k"
       overflow="visible"
       style="overflow:visible">
      <path
         d="m 3.5156,-22.859 h 7.2969 v 22.453 c 0,3.0625 -0.73438,5.3945 -2.2031,7 C 7.1406,8.2073 5.0078,9.0159 2.2188,9.0159 H -1.3906 V 4.219 H -0.125 C 1.2578,4.219 2.2109,3.9065 2.7344,3.2815 3.25393,2.6565 3.51565,1.426 3.51565,-0.406 Z m 0,-8.8906 h 7.2969 v 5.9531 H 3.5156 Z"
         id="path56"
         inkscape:connector-curvature="0" />
    </symbol>
  </defs>
  <g
     id="g189"
     transform="translate(25.00106,94.99521)"
     style="fill:#b3b3b3">
    <path
       d="M 177.78,151.12 V 16.72 h -58.988 v 16.715 h 42.273 v 117.68 h -0.0391 v 9.0273 h -60.598 v 87.859 h 60.598 v 72.352 h -60.598 v 87.859 h 60.598 v 9.0273 h 0.0391 v 126.05 h 16.715 v -126.04 h 101.34 v 37.531 l 121.86,-0.004 v -37.531 h 33.766 v 37.531 h 80.488 v -37.531 h 84.332 l 0.004,-266.12 z m -60.637,80.172 v -54.426 h 43.879 v 54.426 z m 0,160.21 v -54.426 h 43.879 v 54.426 z m 465.72,9.0273 h -84.332 v 37.531 h -15.672 v -31.867 h -16.715 v 31.867 h -14.668 v -37.531 h -67.203 v 37.531 h -20.52 v -31.867 h -16.715 v 31.867 h -19.852 v -33.957 h -16.715 v 33.957 h -14.625 v -37.531 h -118.06 l -0.008,-232.69 h 405.08 z"
       id="path61"
       inkscape:connector-curvature="0"
       style="fill:#b3b3b3" />
    <path
       d="m 222.7,317.99 v 16.715 h 14.625 v 23.82 h 66.867 v -23.82 h 14.625 V 317.99 h -14.625 v -30.34 h 14.625 v -16.715 h -14.625 v -30.34 h 14.625 V 223.88 h -14.625 v -23.82 h -66.867 v 23.82 H 222.7 v 16.715 h 14.625 v 30.34 H 222.7 v 16.715 h 14.625 v 30.34 z m 31.344,-101.22 h 33.434 v 125.04 h -33.434 z"
       id="path63"
       inkscape:connector-curvature="0"
       style="fill:#b3b3b3" />
    <path
       d="m 549.76,213.74 c 7.4688,0 13.543,-6.0742 13.543,-13.539 0,-7.5117 -6.0742,-13.629 -13.543,-13.629 -7.5078,0 -13.621,6.1133 -13.621,13.629 -0.004,7.4648 6.1094,13.539 13.621,13.539 z m 0,-16.715 c 1.707,0 3.0938,1.4258 3.0938,3.1797 0,1.7031 -1.3867,3.0898 -3.0938,3.0898 -1.7539,0 -3.1758,-1.3867 -3.1758,-3.0898 0,-1.7852 1.3945,-3.1797 3.1758,-3.1797 z"
       id="path65"
       inkscape:connector-curvature="0"
       style="fill:#b3b3b3" />
    <path
       d="m 549.76,269.76 c 7.4688,0 13.543,-6.0742 13.543,-13.543 0,-7.5117 -6.0742,-13.621 -13.543,-13.621 -7.5078,0 -13.621,6.1094 -13.621,13.621 -0.004,7.4688 6.1094,13.543 13.621,13.543 z m 0,-16.719 c 1.707,0 3.0938,1.4258 3.0938,3.1758 0,1.707 -1.3867,3.0938 -3.0938,3.0938 -1.7539,0 -3.1758,-1.3867 -3.1758,-3.0938 0,-1.7773 1.3945,-3.1758 3.1758,-3.1758 z"
       id="path67"
       inkscape:connector-curvature="0"
       style="fill:#b3b3b3" />
    <path
       d="m 549.76,325.77 c 7.4688,0 13.543,-6.0742 13.543,-13.539 0,-7.5117 -6.0742,-13.629 -13.543,-13.629 -7.5078,0 -13.621,6.1133 -13.621,13.629 -0.004,7.4648 6.1094,13.539 13.621,13.539 z m 0,-16.715 c 1.707,0 3.0938,1.4258 3.0938,3.1797 0,1.7031 -1.3867,3.0898 -3.0938,3.0898 -1.7539,0 -3.1758,-1.3867 -3.1758,-3.0898 0,-1.7852 1.3945,-3.1797 3.1758,-3.1797 z"
       id="path69"
       inkscape:connector-curvature="0"
       style="fill:#b3b3b3" />
    <path
       d="m 549.76,381.78 c 7.4688,0 13.543,-6.0742 13.543,-13.543 0,-7.5117 -6.0742,-13.621 -13.543,-13.621 -7.5078,0 -13.621,6.1094 -13.621,13.621 -0.004,7.4688 6.1094,13.543 13.621,13.543 z m 0,-16.719 c 1.707,0 3.0938,1.4258 3.0938,3.1758 0,1.707 -1.3867,3.0938 -3.0938,3.0938 -1.7539,0 -3.1758,-1.3867 -3.1758,-3.0938 0,-1.7773 1.3945,-3.1758 3.1758,-3.1758 z"
       id="path71"
       inkscape:connector-curvature="0"
       style="fill:#b3b3b3" />
    <path
       d="m 459.52,196.07 h -72.434 v 72.32 h 72.434 z m -16.719,55.605 h -39 v -38.887 h 39 z"
       id="path73"
       inkscape:connector-curvature="0"
       style="fill:#b3b3b3" />
    <path
       d="m 349.12,355.93 h 157.76 v 16.715 H 349.12 Z"
       id="path75"
       inkscape:connector-curvature="0"
       style="fill:#b3b3b3" />
    <path
       d="m 349.12,317.99 h 157.76 v 16.715 H 349.12 Z"
       id="path77"
       inkscape:connector-curvature="0"
       style="fill:#b3b3b3" />
  </g>
</svg>
