<?xml version="1.0" encoding="UTF-8" standalone="no"?>
<svg
   xmlns:dc="http://purl.org/dc/elements/1.1/"
   xmlns:cc="http://creativecommons.org/ns#"
   xmlns:rdf="http://www.w3.org/1999/02/22-rdf-syntax-ns#"
   xmlns:svg="http://www.w3.org/2000/svg"
   xmlns="http://www.w3.org/2000/svg"
   xmlns:sodipodi="http://sodipodi.sourceforge.net/DTD/sodipodi-0.dtd"
   xmlns:inkscape="http://www.inkscape.org/namespaces/inkscape"
   width="1000"
   height="1000"
   version="1.1"
   viewBox="0 0 750.00002 750.00002"
   id="svg98"
   sodipodi:docname="noun-tank-1616812.svg"
   inkscape:export-filename="/data/projects/programming/alien-rpg-tools/frontend/src/assets/icon_mobility.png"
   inkscape:export-xdpi="24.576"
   inkscape:export-ydpi="24.576"
   inkscape:version="0.92.5 (2060ec1f9f, 2020-04-08)">
  <metadata
     id="metadata102">
    <rdf:RDF>
      <cc:Work
         rdf:about="">
        <dc:format>image/svg+xml</dc:format>
        <dc:type
           rdf:resource="http://purl.org/dc/dcmitype/StillImage" />
        <dc:title></dc:title>
      </cc:Work>
    </rdf:RDF>
  </metadata>
  <sodipodi:namedview
     pagecolor="#ffffff"
     bordercolor="#666666"
     borderopacity="1"
     objecttolerance="10"
     gridtolerance="10"
     guidetolerance="10"
     inkscape:pageopacity="0"
     inkscape:pageshadow="2"
     inkscape:window-width="3840"
     inkscape:window-height="2062"
     id="namedview100"
     showgrid="false"
     units="px"
     inkscape:zoom="0.25285714"
     inkscape:cx="-1129.096"
     inkscape:cy="466.66667"
     inkscape:window-x="0"
     inkscape:window-y="0"
     inkscape:window-maximized="1"
     inkscape:current-layer="svg98" />
  <defs
     id="defs44">
    <symbol
       id="n"
       overflow="visible"
       style="overflow:visible">
      <path
         d="m 36.078,-2.1562 c -1.8672,0.96875 -3.8086,1.6992 -5.8281,2.1875 -2.0117,0.48828 -4.1094,0.73438 -6.2969,0.73438 -6.543,0 -11.727,-1.8281 -15.547,-5.4844 -3.8125,-3.6562 -5.7188,-8.6133 -5.7188,-14.875 0,-6.2695 1.9062,-11.234 5.7188,-14.891 3.8203,-3.6562 9.0039,-5.4844 15.547,-5.4844 2.1875,0 4.2852,0.25 6.2969,0.75 2.0195,0.49219 3.9609,1.2148 5.8281,2.1719 v 8.125 c -1.875,-1.2812 -3.7266,-2.2188 -5.5469,-2.8125 -1.8242,-0.59375 -3.7461,-0.89062 -5.7656,-0.89062 -3.6172,0 -6.4609,1.1562 -8.5312,3.4688 -2.0625,2.3125 -3.0938,5.5 -3.0938,9.5625 0,4.0547 1.0312,7.2344 3.0938,9.5469 2.0703,2.3125 4.9141,3.4688 8.5312,3.4688 2.0195,0 3.9414,-0.29688 5.7656,-0.89062 1.8203,-0.59375 3.6719,-1.5312 5.5469,-2.8125 z"
         id="path2"
         inkscape:connector-curvature="0" />
    </symbol>
    <symbol
       id="h"
       overflow="visible"
       style="overflow:visible">
      <path
         d="m 26.391,-21.422 c -0.82422,-0.38281 -1.6406,-0.67188 -2.4531,-0.85938 -0.8125,-0.1875 -1.6328,-0.28125 -2.4531,-0.28125 -2.4297,0 -4.293,0.77734 -5.5938,2.3281 -1.3047,1.5547 -1.9531,3.7773 -1.9531,6.6719 v 13.562 H 4.516 v -29.453 h 9.4219 v 4.8438 c 1.207,-1.9258 2.5938,-3.332 4.1562,-4.2188 1.5703,-0.88281 3.4531,-1.3281 5.6406,-1.3281 0.32031,0 0.66406,0.01563 1.0312,0.04687 0.36328,0.02344 0.89844,0.07422 1.6094,0.15625 z"
         id="path5"
         inkscape:connector-curvature="0" />
    </symbol>
    <symbol
       id="a"
       overflow="visible"
       style="overflow:visible">
      <path
         d="m 33.922,-14.797 v 2.6719 H 11.906 c 0.22656,2.2109 1.0234,3.8672 2.3906,4.9688 1.375,1.1055 3.2852,1.6562 5.7344,1.6562 1.9766,0 4.0039,-0.28906 6.0781,-0.875 2.082,-0.58203 4.2188,-1.4727 6.4062,-2.6719 v 7.2656 c -2.2188,0.83594 -4.4453,1.4648 -6.6719,1.8906 -2.2305,0.4375 -4.4531,0.65625 -6.6719,0.65625 -5.3359,0 -9.4805,-1.3516 -12.438,-4.0625 -2.9492,-2.707 -4.4219,-6.5078 -4.4219,-11.406 0,-4.8008 1.4453,-8.5781 4.3438,-11.328 2.9062,-2.75 6.8984,-4.125 11.984,-4.125 4.625,0 8.3281,1.3984 11.109,4.1875 2.7812,2.7812 4.1719,6.5078 4.1719,11.172 z m -9.6875,-3.1406 c 0,-1.7812 -0.52344,-3.2188 -1.5625,-4.3125 -1.043,-1.0938 -2.4023,-1.6406 -4.0781,-1.6406 -1.8242,0 -3.3086,0.51172 -4.4531,1.5312 -1.1367,1.0234 -1.8438,2.4961 -2.125,4.4219 z"
         id="path8"
         inkscape:connector-curvature="0" />
    </symbol>
    <symbol
       id="b"
       overflow="visible"
       style="overflow:visible">
      <path
         d="m 17.719,-13.25 c -1.9609,0 -3.4375,0.33594 -4.4375,1 -0.99219,0.66797 -1.4844,1.6484 -1.4844,2.9375 0,1.1992 0.39844,2.1367 1.2031,2.8125 0.80078,0.66797 1.9102,1 3.3281,1 1.7695,0 3.2578,-0.63281 4.4688,-1.9062 1.207,-1.2695 1.8125,-2.8594 1.8125,-4.7656 v -1.0781 z m 14.375,-3.5469 V 1e-4 h -9.4844 v -4.3594 c -1.2617,1.7812 -2.6836,3.0859 -4.2656,3.9062 -1.5742,0.8125 -3.4922,1.2188 -5.75,1.2188 -3.0547,0 -5.5312,-0.89062 -7.4375,-2.6719 -1.8984,-1.7812 -2.8438,-4.0859 -2.8438,-6.9219 0,-3.457 1.1875,-5.9883 3.5625,-7.5938 2.375,-1.6133 6.1016,-2.4219 11.188,-2.4219 h 5.5469 v -0.75 c 0,-1.4883 -0.58984,-2.5781 -1.7656,-3.2656 -1.168,-0.6875 -2.9961,-1.0312 -5.4844,-1.0312 -2.0234,0 -3.9023,0.20312 -5.6406,0.60938 -1.7305,0.39844 -3.3398,0.99609 -4.8281,1.7969 v -7.1719 c 2.0078,-0.48828 4.0312,-0.85938 6.0625,-1.1094 2.0391,-0.25781 4.0781,-0.39062 6.1094,-0.39062 5.3125,0 9.1445,1.0469 11.5,3.1406 2.3516,2.0938 3.5312,5.5 3.5312,10.219 z"
         id="path11"
         inkscape:connector-curvature="0" />
    </symbol>
    <symbol
       id="g"
       overflow="visible"
       style="overflow:visible">
      <path
         d="m 14.797,-37.812 v 8.3594 h 9.7031 v 6.7344 H 14.797 v 12.484 c 0,1.375 0.26953,2.3047 0.8125,2.7812 0.55078,0.48047 1.6289,0.71875 3.2344,0.71875 h 4.8438 v 6.7344 h -8.0781 c -3.7109,0 -6.3398,-0.77344 -7.8906,-2.3281 -1.5547,-1.5508 -2.3281,-4.1875 -2.3281,-7.9062 v -12.484 H 0.7034 v -6.7344 h 4.6875 v -8.3594 z"
         id="path14"
         inkscape:connector-curvature="0" />
    </symbol>
    <symbol
       id="f"
       overflow="visible"
       style="overflow:visible">
      <path
         d="m 24.562,-25.141 v -15.766 h 9.4531 V -0.001 H 24.562 v -4.2656 c -1.3047,1.7422 -2.7344,3.0156 -4.2969,3.8281 -1.5547,0.80078 -3.3555,1.2031 -5.4062,1.2031 -3.6367,0 -6.6211,-1.4414 -8.9531,-4.3281 -2.3242,-2.8828 -3.4844,-6.5977 -3.4844,-11.141 0,-4.5312 1.1602,-8.2383 3.4844,-11.125 2.332,-2.8828 5.3164,-4.3281 8.9531,-4.3281 2.0312,0 3.8281,0.41406 5.3906,1.2344 1.5703,0.8125 3.0078,2.0742 4.3125,3.7812 z m -6.2188,19.062 c 2.0195,0 3.5625,-0.73438 4.625,-2.2031 1.0625,-1.46872 1.5938,-3.6094 1.5938,-6.4219 0,-2.8008 -0.53125,-4.9375 -1.5938,-6.4062 -1.06255,-1.4687 -2.6055,-2.2031 -4.625,-2.2031 -1.9922,0 -3.5156,0.73438 -4.5781,2.2031 -1.0625,1.46872 -1.5938,3.6055 -1.5938,6.4062 0,2.8125 0.53125,4.9531 1.5938,6.4219 1.06255,1.4688 2.5859,2.2031 4.5781,2.2031 z"
         id="path17"
         inkscape:connector-curvature="0" />
    </symbol>
    <symbol
       id="e"
       overflow="visible"
       style="overflow:visible">
      <path
         d="m 20.188,-6.0781 c 2.0195,0 3.5547,-0.73438 4.6094,-2.2031 1.0625,-1.4688 1.5938,-3.6094 1.5938,-6.4219 0,-2.8008 -0.53125,-4.9375 -1.5938,-6.4062 -1.0547,-1.4688 -2.5898,-2.2031 -4.6094,-2.2031 -2.0117,0 -3.5586,0.74219 -4.6406,2.2188 -1.0742,1.4805 -1.6094,3.6094 -1.6094,6.3906 0,2.793 0.53516,4.9297 1.6094,6.4062 1.082,1.4805 2.6289,2.2188 4.6406,2.2188 z m -6.25,-19.062 c 1.2891,-1.707 2.7227,-2.9688 4.2969,-3.7812 1.582,-0.82031 3.3984,-1.2344 5.4531,-1.2344 3.625,0 6.6016,1.4453 8.9375,4.3281 2.332,2.8867 3.5,6.5938 3.5,11.125 0,4.543 -1.168,8.2578 -3.5,11.141 -2.3359,2.8867 -5.3125,4.3281 -8.9375,4.3281 -2.0547,0 -3.8711,-0.40625 -5.4531,-1.2188 -1.5742,-0.82031 -3.0078,-2.0938 -4.2969,-3.8125 V 8e-4 H 4.5161 v -40.906 h 9.4219 z"
         id="path20"
         inkscape:connector-curvature="0" />
    </symbol>
    <symbol
       id="d"
       overflow="visible"
       style="overflow:visible">
      <path
         d="m 0.65625,-29.453 h 9.4062 l 7.9219,19.984 6.7344,-19.984 h 9.4062 l -12.375,32.234 c -1.25,3.2812 -2.7031,5.5703 -4.3594,6.875 -1.6562,1.3125 -3.8438,1.9688 -6.5625,1.9688 H 5.39055 V 5.4373 h 2.9375 c 1.6016,0 2.7656,-0.25781 3.4844,-0.76562 0.72656,-0.5 1.2969,-1.4062 1.7031,-2.7188 l 0.26562,-0.82812 z"
         id="path23"
         inkscape:connector-curvature="0" />
    </symbol>
    <symbol
       id="c"
       overflow="visible"
       style="overflow:visible">
      <path
         d="m 20.672,-24.062 c 1.5938,0 2.8008,-0.34766 3.625,-1.0469 0.82031,-0.69531 1.2344,-1.7266 1.2344,-3.0938 0,-1.3516 -0.41406,-2.3828 -1.2344,-3.0938 -0.82422,-0.70703 -2.0312,-1.0625 -3.625,-1.0625 h -5.6094 v 8.2969 z m 0.32812,17.172 c 2.0391,0 3.5703,-0.42578 4.5938,-1.2812 1.0195,-0.86328 1.5312,-2.1602 1.5312,-3.8906 0,-1.707 -0.51172,-2.9844 -1.5312,-3.8281 -1.0117,-0.85156 -2.543,-1.2812 -4.5938,-1.2812 h -5.9375 v 10.281 z m 9.4219,-14.109 c 2.1641,0.625 3.8438,1.793 5.0312,3.5 1.1953,1.6992 1.7969,3.7812 1.7969,6.25 0,3.7812 -1.2812,6.6055 -3.8438,8.4688 -2.5547,1.8555 -6.4375,2.7812 -11.656,2.7812 h -16.812 v -39.25 h 15.203 c 5.4453,0 9.3945,0.82422 11.844,2.4688 2.4453,1.6484 3.6719,4.2812 3.6719,7.9062 0,1.918 -0.44922,3.5469 -1.3438,4.8906 -0.89844,1.3359 -2.1953,2.3281 -3.8906,2.9844 z"
         id="path26"
         inkscape:connector-curvature="0" />
    </symbol>
    <symbol
       id="m"
       overflow="visible"
       style="overflow:visible">
      <path
         d="M 34.125,-17.938 V 0 h -9.4688 v -13.719 c 0,-2.5391 -0.05859,-4.2891 -0.17188,-5.25 -0.11719,-0.96875 -0.3125,-1.6797 -0.59375,-2.1406 -0.36719,-0.61328 -0.86719,-1.0938 -1.5,-1.4375 -0.625,-0.34375 -1.3398,-0.51562 -2.1406,-0.51562 -1.9688,0 -3.5156,0.76172 -4.6406,2.2812 -1.1172,1.5117 -1.6719,3.6094 -1.6719,6.2969 v 14.484 h -9.4219 v -29.453 h 9.4219 v 4.3125 c 1.4141,-1.707 2.9219,-2.9688 4.5156,-3.7812 1.5938,-0.82031 3.3516,-1.2344 5.2812,-1.2344 3.4062,0 5.9883,1.0469 7.75,3.1406 1.7578,2.0859 2.6406,5.1094 2.6406,9.0781 z"
         id="path29"
         inkscape:connector-curvature="0" />
    </symbol>
    <symbol
       id="l"
       overflow="visible"
       style="overflow:visible">
      <path
         d="m 15.062,-31.609 v 23.953 h 3.625 c 4.1328,0 7.2891,-1.0195 9.4688,-3.0625 2.1875,-2.0508 3.2812,-5.0352 3.2812,-8.9531 0,-3.8828 -1.0898,-6.8438 -3.2656,-8.875 -2.168,-2.0391 -5.3281,-3.0625 -9.4844,-3.0625 z M 4.937,-39.2496 h 10.672 c 5.9688,0 10.41,0.42969 13.328,1.2812 2.9141,0.84375 5.4141,2.2812 7.5,4.3125 1.8438,1.7734 3.207,3.8125 4.0938,6.125 0.89453,2.3125 1.3438,4.9336 1.3438,7.8594 0,2.9688 -0.44922,5.6172 -1.3438,7.9375 -0.88672,2.3242 -2.25,4.3711 -4.0938,6.1406 -2.1055,2.0312 -4.6328,3.4766 -7.5781,4.3281 C 25.9214,-0.42155 21.5034,3e-4 15.6089,3e-4 H 4.9369 Z"
         id="path32"
         inkscape:connector-curvature="0" />
    </symbol>
    <symbol
       id="k"
       overflow="visible"
       style="overflow:visible">
      <path
         d="m 0.8125,-29.453 h 9.4219 l 7.3281,20.359 7.3125,-20.359 h 9.4375 L 22.7185,0 h -10.328 z"
         id="path35"
         inkscape:connector-curvature="0" />
    </symbol>
    <symbol
       id="j"
       overflow="visible"
       style="overflow:visible">
      <path
         d="m 4.5156,-29.453 h 9.4219 V 0 H 4.5156 Z m 0,-11.453 h 9.4219 v 7.6719 H 4.5156 Z"
         id="path38"
         inkscape:connector-curvature="0" />
    </symbol>
    <symbol
       id="i"
       overflow="visible"
       style="overflow:visible">
      <path
         d="m 27.531,-28.531 v 7.1562 c -2.0234,-0.84375 -3.9688,-1.4727 -5.8438,-1.8906 -1.875,-0.41406 -3.6484,-0.625 -5.3125,-0.625 -1.7812,0 -3.1094,0.22656 -3.9844,0.67188 -0.86719,0.4375 -1.2969,1.1211 -1.2969,2.0469 0,0.76172 0.32812,1.3438 0.98438,1.75 0.65625,0.39844 1.832,0.69531 3.5312,0.89062 l 1.6562,0.23438 c 4.8203,0.61719 8.0664,1.625 9.7344,3.0312 1.6641,1.3984 2.5,3.5938 2.5,6.5938 0,3.1367 -1.1562,5.4961 -3.4688,7.0781 -2.3125,1.5742 -5.7656,2.3594 -10.359,2.3594 -1.9492,0 -3.9648,-0.15625 -6.0469,-0.46875 -2.0742,-0.30078 -4.2031,-0.75781 -6.3906,-1.375 v -7.1562 c 1.875,0.91797 3.7969,1.6055 5.7656,2.0625 1.9766,0.44922 3.9844,0.67188 6.0156,0.67188 1.832,0 3.2109,-0.25 4.1406,-0.75 0.9375,-0.50781 1.4062,-1.2656 1.4062,-2.2656 0,-0.84375 -0.32422,-1.4688 -0.96875,-1.875 -0.63672,-0.41406 -1.9062,-0.73828 -3.8125,-0.96875 l -1.6562,-0.20312 c -4.1992,-0.53125 -7.1406,-1.5039 -8.8281,-2.9219 -1.6797,-1.4141 -2.5156,-3.5703 -2.5156,-6.4688 0,-3.125 1.0664,-5.4375 3.2031,-6.9375 2.1445,-1.5078 5.4258,-2.2656 9.8438,-2.2656 1.7383,0 3.5625,0.13672 5.4688,0.40625 1.9062,0.26172 3.9844,0.66797 6.2344,1.2188 z"
         id="path41"
         inkscape:connector-curvature="0" />
    </symbol>
  </defs>
  <g
     id="g137"
     transform="translate(24.989055,100.14781)"
     style="fill:#b3b3b3">
    <path
       d="m 134.62,484.62 c 0,5.9453 -4.8242,10.766 -10.77,10.766 -5.9492,0 -10.77,-4.8203 -10.77,-10.766 0,-5.9492 4.8203,-10.77 10.77,-10.77 5.9453,0 10.77,4.8203 10.77,10.77"
       id="path46"
       inkscape:connector-curvature="0"
       style="fill:#b3b3b3" />
    <path
       d="m 285.38,484.62 c 0,5.9453 -4.8203,10.766 -10.766,10.766 -5.9492,0 -10.77,-4.8203 -10.77,-10.766 0,-5.9492 4.8203,-10.77 10.77,-10.77 5.9453,0 10.766,4.8203 10.766,10.77"
       id="path48"
       inkscape:connector-curvature="0"
       style="fill:#b3b3b3" />
    <path
       d="m 490,226.15 c -5.9414,0.0195 -10.754,4.832 -10.77,10.77 -0.0469,2.8086 1.0859,5.5039 3.125,7.4336 1.957,2.1484 4.7383,3.3633 7.6445,3.3359 h 112 l -38.23,-21.539 z"
       id="path50"
       inkscape:connector-curvature="0"
       style="fill:#b3b3b3" />
    <path
       d="m 239.4,134.51 c -1.957,-3.2539 -5.4648,-5.25 -9.2617,-5.2773 h -20.137 v -64.613 h 10.77 c 5.9414,-0.01953 10.75,-4.832 10.77,-10.77 h 247.69 v 10.77 h 86.152 V 0.0027 h -86.152 v 10.77 h -247.69 c -0.0195,-5.9414 -4.8281,-10.754 -10.77,-10.77 h -64.617 c -5.9375,0.015625 -10.75,4.8281 -10.77,10.77 v 43.078 c 0.0195,5.9375 4.832,10.75 10.77,10.77 h 10.77 v 64.613 h -20.137 c -3.7969,0.0273 -7.3047,2.0234 -9.2617,5.2773 l -16.152,27.031 h 134.18 z"
       id="path52"
       inkscape:connector-curvature="0"
       style="fill:#b3b3b3" />
    <path
       d="m 586.92,484.62 c 0,5.9453 -4.8203,10.766 -10.77,10.766 -5.9453,0 -10.77,-4.8203 -10.77,-10.766 0,-5.9492 4.8242,-10.77 10.77,-10.77 5.9492,0 10.77,4.8203 10.77,10.77"
       id="path54"
       inkscape:connector-curvature="0"
       style="fill:#b3b3b3" />
    <path
       d="m 646.05,272.46 -5.707,-3.2305 h -150.34 c -17.832,-0.0273 -32.281,-14.477 -32.309,-32.309 0.0547,-17.82 14.488,-32.254 32.309,-32.305 h 35.215 c -26.465,-14.066 -55.965,-21.461 -85.938,-21.539 H 84.33 l -35.863,26.922 v 118.46 l 35.863,26.922 h 57.633 l -19.531,64.688 c -31.527,0.59375 -58.055,23.789 -62.848,54.957 -4.7891,31.164 13.543,61.258 43.434,71.297 29.891,10.035 62.672,-2.8945 77.66,-30.637 14.988,-27.7425 7.8359,-62.246 -16.945,-81.746 l 23.719,-78.559 h 65.633 v 68.383 c -29.672,10.488 -47.469,40.828 -42.148,71.848 5.3242,31.016 32.215,53.688 63.688,53.688 31.469,0 58.363,-22.672 63.684,-53.688 5.3203,-31.02 -12.477,-61.359 -42.148,-71.848 v -68.383 h 107.7 v 68.383 c -29.672,10.488 -47.469,40.828 -42.148,71.848 5.3203,31.016 32.215,53.688 63.684,53.688 31.473,0 58.363,-22.672 63.688,-53.688 5.3203,-31.02 -12.477,-61.359 -42.148,-71.848 v -68.383 h 71.164 l 22.711,75.207 c -26.789,17.586 -36.621,52.168 -23.086,81.215 13.531,29.051 46.328,43.773 77.027,34.578 30.703,-9.1953 50.008,-39.52 45.344,-71.227 -4.6641,-31.707 -31.883,-55.191 -63.93,-55.156 -0.33594,0 -0.66016,0.0469 -0.99609,0.0508 l -19.527,-64.668 h 85.141 c 5.9414,-0.0156 10.75,-4.8281 10.77,-10.766 v -62.785 c -0.0352,-3.8789 -2.125,-7.4453 -5.4922,-9.3711 z m -522.2,244.46 c -17.844,0 -32.309,-14.465 -32.309,-32.305 0,-17.844 14.465,-32.309 32.309,-32.309 17.84,0 32.305,14.465 32.305,32.309 -0.0508,17.82 -14.484,32.254 -32.305,32.305 z m 183.07,-32.305 c 0,17.84 -14.465,32.305 -32.305,32.305 -17.844,0 -32.309,-14.465 -32.309,-32.305 0,-17.844 14.465,-32.309 32.309,-32.309 17.82,0.0508 32.254,14.484 32.305,32.309 z m 150.77,0 c 0,17.84 -14.465,32.305 -32.309,32.305 -17.84,0 -32.305,-14.465 -32.305,-32.305 0,-17.844 14.465,-32.309 32.305,-32.309 17.824,0.0508 32.258,14.484 32.309,32.309 z M 123.85,312.305 C 106.026,312.2503 91.592,297.817 91.541,279.996 v -21.539 c 0.05078,-17.82 14.484,-32.254 32.309,-32.309 h 107.69 c 17.82,0.0547 32.254,14.488 32.309,32.309 v 21.539 c -0.0547,17.82 -14.488,32.254 -32.309,32.309 z m 484.61,172.31 c 0,17.84 -14.465,32.305 -32.309,32.305 -17.84,0 -32.305,-14.465 -32.305,-32.305 0,-17.844 14.465,-32.309 32.305,-32.309 17.824,0.0508 32.258,14.484 32.309,32.309 z"
       id="path56"
       inkscape:connector-curvature="0"
       style="fill:#b3b3b3" />
    <path
       d="m 436.15,484.62 c 0,5.9453 -4.8203,10.766 -10.77,10.766 -5.9453,0 -10.766,-4.8203 -10.766,-10.766 0,-5.9492 4.8203,-10.77 10.766,-10.77 5.9492,0 10.77,4.8203 10.77,10.77"
       id="path58"
       inkscape:connector-curvature="0"
       style="fill:#b3b3b3" />
    <path
       d="m 123.85,247.69 h 107.69 c 5.9492,0 10.77,5.9492 10.77,10.77 v 21.539 c 0,5.9492 -4.8203,10.77 -10.77,10.77 H 123.85 c -5.9492,0 -10.77,-5.9492 -10.77,-10.77 V 258.46 c 0,-5.9492 4.8203,-10.77 10.77,-10.77 z"
       id="path60"
       inkscape:connector-curvature="0"
       style="fill:#b3b3b3" />
  </g>
</svg>
