<?xml version="1.0" encoding="UTF-8" standalone="no"?>
<svg
   xmlns:dc="http://purl.org/dc/elements/1.1/"
   xmlns:cc="http://creativecommons.org/ns#"
   xmlns:rdf="http://www.w3.org/1999/02/22-rdf-syntax-ns#"
   xmlns:svg="http://www.w3.org/2000/svg"
   xmlns="http://www.w3.org/2000/svg"
   xmlns:sodipodi="http://sodipodi.sourceforge.net/DTD/sodipodi-0.dtd"
   xmlns:inkscape="http://www.inkscape.org/namespaces/inkscape"
   width="1000"
   height="1000"
   version="1.1"
   viewBox="0 0 750.00002 750.00002"
   id="svg93"
   sodipodi:docname="noun-boxes-1040333.svg"
   inkscape:export-filename="/data/projects/programming/alien-rpg-tools/frontend/src/assets/icon_cargo.png"
   inkscape:export-xdpi="24.576"
   inkscape:export-ydpi="24.576"
   inkscape:version="0.92.5 (2060ec1f9f, 2020-04-08)">
  <metadata
     id="metadata97">
    <rdf:RDF>
      <cc:Work
         rdf:about="">
        <dc:format>image/svg+xml</dc:format>
        <dc:type
           rdf:resource="http://purl.org/dc/dcmitype/StillImage" />
        <dc:title></dc:title>
      </cc:Work>
    </rdf:RDF>
  </metadata>
  <sodipodi:namedview
     pagecolor="#ffffff"
     bordercolor="#666666"
     borderopacity="1"
     objecttolerance="10"
     gridtolerance="10"
     guidetolerance="10"
     inkscape:pageopacity="0"
     inkscape:pageshadow="2"
     inkscape:window-width="3840"
     inkscape:window-height="2062"
     id="namedview95"
     showgrid="false"
     units="px"
     inkscape:zoom="0.25285714"
     inkscape:cx="-1129.096"
     inkscape:cy="466.66667"
     inkscape:window-x="0"
     inkscape:window-y="0"
     inkscape:window-maximized="1"
     inkscape:current-layer="svg93" />
  <defs
     id="defs47">
    <symbol
       id="o"
       overflow="visible"
       style="overflow:visible">
      <path
         d="m 34.484,-2.0625 c -1.7812,0.92969 -3.6367,1.625 -5.5625,2.0938 -1.9297,0.46875 -3.9375,0.70312 -6.0312,0.70312 -6.25,0 -11.203,-1.7422 -14.859,-5.2344 -3.6484,-3.5 -5.4688,-8.2383 -5.4688,-14.219 0,-6 1.8203,-10.742 5.4688,-14.234 3.6562,-3.5 8.6094,-5.25 14.859,-5.25 2.0938,0 4.1016,0.23438 6.0312,0.70312 1.9258,0.46875 3.7812,1.168 5.5625,2.0938 v 7.7656 c -1.793,-1.2266 -3.5625,-2.125 -5.3125,-2.6875 -1.7422,-0.57031 -3.5742,-0.85938 -5.5,-0.85938 -3.4492,0 -6.1641,1.1094 -8.1406,3.3281 -1.9805,2.2109 -2.9688,5.2578 -2.9688,9.1406 0,3.8672 0.98828,6.9062 2.9688,9.125 1.9766,2.2109 4.6914,3.3125 8.1406,3.3125 1.9258,0 3.7578,-0.28125 5.5,-0.84375 1.75,-0.57031 3.5195,-1.4727 5.3125,-2.7031 z"
         id="path2"
         inkscape:connector-curvature="0" />
    </symbol>
    <symbol
       id="b"
       overflow="visible"
       style="overflow:visible">
      <path
         d="m 25.234,-20.484 c -0.79297,-0.36328 -1.5781,-0.63281 -2.3594,-0.8125 -0.77344,-0.17578 -1.5547,-0.26562 -2.3438,-0.26562 -2.3125,0 -4.0938,0.74609 -5.3438,2.2344 -1.25,1.4805 -1.875,3.6016 -1.875,6.3594 V 6.8e-4 H 4.3276 v -28.141 h 8.9844 v 4.625 c 1.1562,-1.8438 2.4844,-3.1875 3.9844,-4.0312 1.5,-0.85156 3.2969,-1.2812 5.3906,-1.2812 0.30078,0 0.62891,0.01563 0.98438,0.04687 0.35156,0.02344 0.86328,0.07422 1.5312,0.15625 z"
         id="path5"
         inkscape:connector-curvature="0" />
    </symbol>
    <symbol
       id="a"
       overflow="visible"
       style="overflow:visible">
      <path
         d="m 32.422,-14.156 v 2.5781 H 11.391 c 0.21875,2.1055 0.97656,3.6875 2.2812,4.75 1.3008,1.0547 3.1289,1.5781 5.4844,1.5781 1.8828,0 3.8203,-0.28125 5.8125,-0.84375 1.9883,-0.5625 4.0312,-1.4102 6.125,-2.5469 v 6.9375 c -2.1367,0.80469 -4.2656,1.4062 -6.3906,1.8125 -2.125,0.41406 -4.25,0.625 -6.375,0.625 -5.0938,0 -9.0547,-1.2891 -11.875,-3.875 -2.8242,-2.5938 -4.2344,-6.2266 -4.2344,-10.906 0,-4.5938 1.3828,-8.2031 4.1562,-10.828 2.7695,-2.6328 6.582,-3.9531 11.438,-3.9531 4.4258,0 7.9688,1.3359 10.625,4 2.6562,2.668 3.9844,6.2266 3.9844,10.672 z m -9.25,-2.9844 c 0,-1.707 -0.5,-3.082 -1.5,-4.125 -0.99219,-1.0508 -2.293,-1.5781 -3.9062,-1.5781 -1.7422,0 -3.1562,0.49219 -4.25,1.4688 -1.0859,0.98047 -1.7617,2.3906 -2.0312,4.2344 z"
         id="path8"
         inkscape:connector-curvature="0" />
    </symbol>
    <symbol
       id="h"
       overflow="visible"
       style="overflow:visible">
      <path
         d="m 16.938,-12.672 c -1.875,0 -3.2891,0.32422 -4.2344,0.96875 -0.94922,0.63672 -1.4219,1.5742 -1.4219,2.8125 0,1.1367 0.37891,2.0273 1.1406,2.6719 0.76953,0.64844 1.832,0.96875 3.1875,0.96875 1.6875,0 3.1094,-0.60156 4.2656,-1.8125 1.1562,-1.2188 1.7344,-2.7422 1.7344,-4.5781 v -1.0312 z m 13.75,-3.3906 V -6e-4 h -9.0781 v -4.1719 c -1.2109,1.7109 -2.5703,2.9531 -4.0781,3.7344 -1.5,0.78125 -3.3359,1.1719 -5.5,1.1719 -2.9062,0 -5.2734,-0.84766 -7.0938,-2.5469 -1.8125,-1.707 -2.7188,-3.9141 -2.7188,-6.625 0,-3.3008 1.1289,-5.7227 3.3906,-7.2656 2.2695,-1.5391 5.8359,-2.3125 10.703,-2.3125 h 5.2969 v -0.70312 c 0,-1.4258 -0.5625,-2.4688 -1.6875,-3.125 -1.1172,-0.66406 -2.8672,-1 -5.25,-1 -1.9297,0 -3.7188,0.19531 -5.375,0.57812 -1.6562,0.38672 -3.1992,0.96484 -4.625,1.7344 v -6.8594 c 1.9258,-0.46875 3.8594,-0.82031 5.7969,-1.0625 1.9453,-0.25 3.8945,-0.375 5.8438,-0.375 5.0703,0 8.7344,1.0078 10.984,3.0156 2.2578,2 3.3906,5.25 3.3906,9.75 z"
         id="path11"
         inkscape:connector-curvature="0" />
    </symbol>
    <symbol
       id="g"
       overflow="visible"
       style="overflow:visible">
      <path
         d="m 14.156,-36.141 v 8 h 9.2656 v 6.4219 H 14.156 v 11.938 c 0,1.3125 0.25391,2.1992 0.76562,2.6562 0.51953,0.46094 1.5508,0.6875 3.0938,0.6875 h 4.625 V 1e-4 h -7.7188 c -3.5547,0 -6.0703,-0.73828 -7.5469,-2.2188 -1.4805,-1.4883 -2.2188,-4.0078 -2.2188,-7.5625 v -11.938 h -4.4844 v -6.4219 h 4.4844 v -8 z"
         id="path14"
         inkscape:connector-curvature="0" />
    </symbol>
    <symbol
       id="c"
       overflow="visible"
       style="overflow:visible">
      <path
         d="m 23.469,-24.031 v -15.078 h 9.0469 V 0 H 23.469 v -4.0781 c -1.2422,1.668 -2.6055,2.8867 -4.0938,3.6562 -1.4922,0.76953 -3.2148,1.1562 -5.1719,1.1562 -3.4688,0 -6.3203,-1.3789 -8.5469,-4.1406 -2.2305,-2.7578 -3.3438,-6.3047 -3.3438,-10.641 0,-4.3438 1.1133,-7.8906 3.3438,-10.641 2.2266,-2.7578 5.0781,-4.1406 8.5469,-4.1406 1.9375,0 3.6562,0.39062 5.1562,1.1719 1.5,0.78128 2.8672,1.9922 4.1094,3.625 z m -5.9219,18.219 c 1.9258,0 3.3945,-0.70312 4.4062,-2.1094 1.0078,-1.4062 1.5156,-3.4453 1.5156,-6.125 0,-2.6758 -0.50781,-4.7188 -1.5156,-6.125 -1.0117,-1.4141 -2.4805,-2.125 -4.4062,-2.125 -1.918,0 -3.3828,0.71094 -4.3906,2.125 -1.0117,1.4062 -1.5156,3.4492 -1.5156,6.125 0,2.6797 0.50391,4.7188 1.5156,6.125 1.0078,1.4062 2.4727,2.1094 4.3906,2.1094 z"
         id="path17"
         inkscape:connector-curvature="0" />
    </symbol>
    <symbol
       id="f"
       overflow="visible"
       style="overflow:visible">
      <path
         d="m 19.297,-5.8125 c 1.9258,0 3.3945,-0.70312 4.4062,-2.1094 1.0195,-1.4062 1.5312,-3.4453 1.5312,-6.125 0,-2.6758 -0.51172,-4.7188 -1.5312,-6.125 -1.0117,-1.4141 -2.4805,-2.125 -4.4062,-2.125 -1.9297,0 -3.4062,0.71094 -4.4375,2.125 -1.0312,1.418 -1.5469,3.4609 -1.5469,6.125 0,2.668 0.51562,4.7109 1.5469,6.125 1.0312,1.4062 2.5078,2.1094 4.4375,2.1094 z m -5.9844,-18.219 c 1.2383,-1.6328 2.6133,-2.8438 4.125,-3.625 1.5078,-0.78125 3.2422,-1.1719 5.2031,-1.1719 3.4688,0 6.3164,1.3828 8.5469,4.1406 2.2266,2.75 3.3438,6.2969 3.3438,10.641 0,4.3359 -1.1172,7.8828 -3.3438,10.641 -2.2305,2.7617 -5.0781,4.1406 -8.5469,4.1406 -1.9609,0 -3.6953,-0.39062 -5.2031,-1.1719 -1.5117,-0.78125 -2.8867,-1.9922 -4.125,-3.6406 V 4e-4 H 4.3282 v -39.109 h 8.9844 z"
         id="path20"
         inkscape:connector-curvature="0" />
    </symbol>
    <symbol
       id="e"
       overflow="visible"
       style="overflow:visible">
      <path
         d="m 0.625,-28.141 h 9 l 7.5625,19.094 6.4375,-19.094 h 9 L 20.781,2.656 c -1.1875,3.1328 -2.5742,5.3281 -4.1562,6.5781 -1.5859,1.25 -3.6719,1.875 -6.2656,1.875 H 5.1561 V 5.2029 h 2.8125 c 1.5195,0 2.6289,-0.24609 3.3281,-0.73438 0.69531,-0.48047 1.2383,-1.3516 1.625,-2.6094 l 0.25,-0.78125 z"
         id="path23"
         inkscape:connector-curvature="0" />
    </symbol>
    <symbol
       id="d"
       overflow="visible"
       style="overflow:visible">
      <path
         d="M 27.5,-6.8281 H 12.359 L 9.984,0 H 0.2496 l 13.906,-37.516 h 11.531 L 39.5776,0 h -9.7188 z m -12.719,-6.9688 h 10.281 l -5.1406,-14.922 z"
         id="path26"
         inkscape:connector-curvature="0" />
    </symbol>
    <symbol
       id="n"
       overflow="visible"
       style="overflow:visible">
      <path
         d="M 32.625,-17.141 V 0 h -9.0469 v -13.125 c 0,-2.4258 -0.05859,-4.0977 -0.17188,-5.0156 -0.10547,-0.92578 -0.29297,-1.6094 -0.5625,-2.0469 -0.35547,-0.58203 -0.83594,-1.0352 -1.4375,-1.3594 -0.60547,-0.33203 -1.293,-0.5 -2.0625,-0.5 -1.875,0 -3.3516,0.73047 -4.4219,2.1875 -1.0742,1.4492 -1.6094,3.4531 -1.6094,6.0156 V 2e-4 h -8.9844 v -28.141 h 8.9844 v 4.1094 c 1.3633,-1.6328 2.8047,-2.8438 4.3281,-3.625 1.5195,-0.78125 3.2031,-1.1719 5.0469,-1.1719 3.25,0 5.7188,1 7.4062,3 1.6875,1.9922 2.5312,4.8867 2.5312,8.6875 z"
         id="path29"
         inkscape:connector-curvature="0" />
    </symbol>
    <symbol
       id="m"
       overflow="visible"
       style="overflow:visible">
      <path
         d="m 4.3281,-28.141 h 8.9844 V -0.5 c 0,3.7695 -0.90625,6.6445 -2.7188,8.625 -1.8047,1.9883 -4.4219,2.9844 -7.8594,2.9844 H -1.7032 V 5.2032 h 1.5469 c 1.707,0 2.8789,-0.38672 3.5156,-1.1562 0.64453,-0.77344 0.96875,-2.2891 0.96875,-4.5469 z m 0,-10.969 h 8.9844 v 7.3438 H 4.3281 Z"
         id="path32"
         inkscape:connector-curvature="0" />
    </symbol>
    <symbol
       id="l"
       overflow="visible"
       style="overflow:visible">
      <path
         d="m 26.312,-27.266 v 6.8281 c -1.9297,-0.80078 -3.7891,-1.3984 -5.5781,-1.7969 -1.793,-0.40625 -3.4844,-0.60938 -5.0781,-0.60938 -1.7109,0 -2.9805,0.21484 -3.8125,0.64062 -0.82422,0.42969 -1.2344,1.0859 -1.2344,1.9688 0,0.71875 0.3125,1.2734 0.9375,1.6562 0.625,0.38672 1.75,0.67188 3.375,0.85938 l 1.5938,0.23438 c 4.6016,0.58594 7.7031,1.5469 9.2969,2.8906 1.5938,1.3359 2.3906,3.4336 2.3906,6.2969 0,3 -1.1094,5.2578 -3.3281,6.7656 -2.2109,1.5117 -5.5078,2.2656 -9.8906,2.2656 -1.8672,0 -3.793,-0.15234 -5.7812,-0.45312 -1.9805,-0.28906 -4.0156,-0.72656 -6.1094,-1.3125 v -6.8281 c 1.7891,0.86719 3.6289,1.5156 5.5156,1.9531 1.8828,0.4375 3.7969,0.65625 5.7344,0.65625 1.7578,0 3.082,-0.23828 3.9688,-0.71875 0.89453,-0.48828 1.3438,-1.2109 1.3438,-2.1719 0,-0.80078 -0.30859,-1.3984 -0.92188,-1.7969 -0.61719,-0.39453 -1.8359,-0.70312 -3.6562,-0.92188 l -1.5781,-0.20312 c -4.0117,-0.5 -6.8242,-1.4258 -8.4375,-2.7812 -1.6055,-1.3633 -2.4062,-3.4258 -2.4062,-6.1875 0,-2.9766 1.0195,-5.1875 3.0625,-6.625 2.0508,-1.4453 5.1875,-2.1719 9.4062,-2.1719 1.6562,0 3.3945,0.125 5.2188,0.375 1.832,0.25 3.8203,0.64844 5.9688,1.1875 z"
         id="path35"
         inkscape:connector-curvature="0" />
    </symbol>
    <symbol
       id="k"
       overflow="visible"
       style="overflow:visible">
      <path
         d="m 4.7188,-37.516 h 9.6875 v 13.688 l 13.938,-13.688 h 11.234 L 21.5163,-19.75 41.4383,0 H 29.3293 L 14.4073,-14.781 V 0 H 4.7198 Z"
         id="path38"
         inkscape:connector-curvature="0" />
    </symbol>
    <symbol
       id="j"
       overflow="visible"
       style="overflow:visible">
      <path
         d="m 4.3281,-28.141 h 8.9844 V 0 H 4.3281 Z m 0,-10.969 h 8.9844 v 7.3438 H 4.3281 Z"
         id="path41"
         inkscape:connector-curvature="0" />
    </symbol>
    <symbol
       id="i"
       overflow="visible"
       style="overflow:visible">
      <path
         d="m 30.406,-23.469 c 1.1445,-1.75 2.5,-3.0781 4.0625,-3.9844 1.5625,-0.91406 3.2812,-1.375 5.1562,-1.375 3.2383,0 5.7031,1 7.3906,3 1.6953,1.9922 2.5469,4.8867 2.5469,8.6875 V 1e-4 h -9.0469 v -14.672 c 0.0078,-0.21875 0.01953,-0.44141 0.03125,-0.67188 0.0078,-0.23828 0.01563,-0.57812 0.01563,-1.0156 0,-1.9883 -0.29688,-3.4297 -0.89062,-4.3281 -0.58594,-0.90625 -1.5273,-1.3594 -2.8281,-1.3594 -1.7109,0 -3.0312,0.71094 -3.9688,2.125 -0.92969,1.4062 -1.4062,3.4375 -1.4375,6.0938 V -8e-5 h -9.0469 v -14.672 c 0,-3.1133 -0.27344,-5.1172 -0.8125,-6.0156 -0.53125,-0.90625 -1.4844,-1.3594 -2.8594,-1.3594 -1.7188,0 -3.0547,0.71094 -4,2.125 -0.9375,1.418 -1.4062,3.4453 -1.4062,6.0781 V 2e-5 h -9.0469 v -28.141 h 9.0469 v 4.1094 c 1.1133,-1.582 2.3828,-2.7734 3.8125,-3.5781 1.4375,-0.8125 3.0156,-1.2188 4.7344,-1.2188 1.9453,0 3.6641,0.46875 5.1562,1.4062 1.4883,0.9375 2.6172,2.2578 3.3906,3.9531 z"
         id="path44"
         inkscape:connector-curvature="0" />
    </symbol>
  </defs>
  <g
     id="g121"
     transform="translate(25.001725,93.18924)"
     style="fill:#b3b3b3">
    <path
       d="m 164.71,268.79 v 151.98 c 0,15.305 -16.109,25.258 -29.797,18.414 L 11.383,377.418 C 4.4064,373.9297 0,366.801 0,359.004 v -164.71 c 0,-1.2383 0.10547,-2.4453 0.30859,-3.6094 0.98828,-5.7969 4.5,-11.297 10.523,-14.52 0.26562,-0.14453 0.53125,-0.28125 0.80469,-0.41016 l 123.27,-61.641 c 5.7969,-2.8984 12.617,-2.8984 18.414,0 l 123.53,61.766 c 15.172,7.5859 15.172,29.242 0,36.828 z m -123.53,77.492 82.355,41.18 V 268.792 L 41.18,227.616 Z m 102.94,-190.73 -77.492,38.746 77.492,38.746 77.492,-38.746 z m 348.02,122.85 c 0.33203,0.14453 0.66016,0.30078 0.98438,0.46484 4.6367,2.332 7.8555,6.0156 9.6406,10.219 1.0234,2.3945 1.6172,5.0508 1.6484,7.8984 0,0.125 0.004,0.25 0,0.375 v 164.59 c 0,7.5742 -4.1562,14.535 -10.824,18.125 l -133.73,72.008 c -2.9023,1.5859 -6.1797,2.4844 -10.16,2.5391 -3.3789,-0.0547 -6.6562,-0.95312 -9.5586,-2.5391 l -133.73,-72.008 c -6.668,-3.5898 -10.824,-10.551 -10.824,-18.125 v -164.59 c -0.004,-0.125 0,-0.25 0,-0.375 0.0312,-2.8477 0.625,-5.5039 1.6484,-7.8984 1.7852,-4.2031 5.0039,-7.8867 9.6406,-10.219 0.32422,-0.16406 0.65234,-0.32031 0.98438,-0.46484 l 133.51,-61.621 c 5.4766,-2.5273 11.781,-2.5273 17.258,0 z m -255.37,53.305 v 117.94 l 92.645,49.887 v -117.94 z m 133.82,49.887 v 117.94 l 92.645,-49.887 V 331.707 Z M 350,258.144 262.234,298.652 350,345.91 437.766,298.652 Z m 338.36,-82.391 c 0.27344,0.12891 0.53906,0.26562 0.80469,0.41016 6.0234,3.2227 9.5352,8.7227 10.535,14.598 0.19141,1.0859 0.29688,2.293 0.29688,3.5312 v 164.71 c 0,7.7969 -4.4062,14.926 -11.383,18.414 l -123.53,61.766 c -13.688,6.8438 -29.797,-3.1094 -29.797,-18.414 v -151.98 l -112.15,-56.074 c -15.172,-7.5859 -15.172,-29.242 0,-36.828 l 123.53,-61.766 c 5.7969,-2.8984 12.617,-2.8984 18.414,0 z M 576.47,268.78 v 118.67 l 82.355,-41.18 V 227.6 Z m -20.586,-35.742 77.492,-38.746 -77.492,-38.746 -77.492,38.746 z m -338.62,-123.27 c -15.172,-7.5859 -15.172,-29.242 0,-36.828 l 123.53,-61.766 c 5.7969,-2.8984 12.617,-2.8984 18.414,0 l 123.53,61.766 c 15.172,7.5859 15.172,29.242 0,36.828 l -123.53,61.766 c -5.7969,2.8984 -12.617,2.8984 -18.414,0 z M 350.004,130.1 427.496,91.354 350.004,52.608 272.512,91.354 Z"
       id="path49"
       inkscape:connector-curvature="0"
       style="fill:#b3b3b3;fill-rule:evenodd" />
  </g>
</svg>
