<?xml version="1.0" encoding="UTF-8" standalone="no"?>
<!-- Created with Inkscape (http://www.inkscape.org/) -->

<svg
   xmlns:dc="http://purl.org/dc/elements/1.1/"
   xmlns:cc="http://creativecommons.org/ns#"
   xmlns:rdf="http://www.w3.org/1999/02/22-rdf-syntax-ns#"
   xmlns:svg="http://www.w3.org/2000/svg"
   xmlns="http://www.w3.org/2000/svg"
   xmlns:sodipodi="http://sodipodi.sourceforge.net/DTD/sodipodi-0.dtd"
   xmlns:inkscape="http://www.inkscape.org/namespaces/inkscape"
   width="210mm"
   height="210mm"
   viewBox="0 0 210 210"
   version="1.1"
   id="svg8"
   inkscape:version="0.92.5 (2060ec1f9f, 2020-04-08)"
   sodipodi:docname="weyland-yutani-corp-wings.svg"
   inkscape:export-filename="/data/projects/programming/alien-rpg-tools/frontend/src/assets/icons/favicon_32x32.png"
   inkscape:export-xdpi="3.870476"
   inkscape:export-ydpi="3.870476">
  <defs
     id="defs2" />
  <sodipodi:namedview
     id="base"
     pagecolor="#ffffff"
     bordercolor="#666666"
     borderopacity="1.0"
     inkscape:pageopacity="0.0"
     inkscape:pageshadow="2"
     inkscape:zoom="0.98994949"
     inkscape:cx="-163.8859"
     inkscape:cy="216.76966"
     inkscape:document-units="mm"
     inkscape:current-layer="layer1"
     showgrid="false"
     fit-margin-top="0"
     fit-margin-left="0"
     fit-margin-right="0"
     fit-margin-bottom="0"
     inkscape:window-width="3840"
     inkscape:window-height="2062"
     inkscape:window-x="0"
     inkscape:window-y="0"
     inkscape:window-maximized="1" />
  <metadata
     id="metadata5">
    <rdf:RDF>
      <cc:Work
         rdf:about="">
        <dc:format>image/svg+xml</dc:format>
        <dc:type
           rdf:resource="http://purl.org/dc/dcmitype/StillImage" />
        <dc:title></dc:title>
      </cc:Work>
    </rdf:RDF>
  </metadata>
  <g
     inkscape:label="Ebene 1"
     inkscape:groupmode="layer"
     id="layer1"
     transform="translate(-6.867954,59.855479)">
    <path
       style="fill:#999999;stroke-width:1.08477414"
       d="m 131.81674,105.54507 c -9.91784,-1.04946 -13.20292,-1.72103 -12.33457,-2.52158 0.51946,-0.47891 5.09366,-2.09757 10.16498,-3.597041 5.07131,-1.499476 18.15561,-5.456488 29.07608,-8.793302 l 19.85559,-6.067003 15.94193,2.608507 c 8.76817,1.434692 19.98008,2.95732 24.91528,3.383634 4.93531,0.426304 9.19714,1.13732 9.47067,1.580036 0.27354,0.442666 -6.2051,3.673696 -14.39707,7.180048 l -14.8945,6.375201 -32.00087,0.12669 c -17.60045,0.0697 -33.70933,-0.0541 -35.79752,-0.27509 z m 81.35806,-0.21485 c 0,-0.49809 5.97981,-3.586 13.28847,-6.862053 l 13.28847,-5.956388 20.33946,0.456853 c 11.18683,0.251331 20.33522,0.776442 20.32986,1.167009 0,0.390719 -4.21035,3.272895 -9.34437,6.405169 l -9.33455,5.69506 h -24.28367 c -13.35602,0 -24.28367,-0.40754 -24.28367,-0.90565 z m 61.83204,-0.0422 c 0,-0.52139 3.81152,-3.45029 8.46995,-6.508647 l 8.46986,-5.560704 h 15.93748 c 8.76575,0 15.93759,0.439187 15.93759,0.975958 0,0.53676 -2.72415,3.465625 -6.05363,6.508643 l -6.05372,5.53269 h -18.35372 c -10.0946,0 -18.35381,-0.42659 -18.35381,-0.94798 z m 50.98447,-0.18327 c 0,-0.62215 2.26344,-3.55107 5.02986,-6.508642 l 5.02995,-5.37748 h 13.95366 c 7.67442,0 13.95355,0.289869 13.95355,0.644103 0,0.354234 -1.57843,3.283098 -3.50776,6.508639 l -3.50775,5.86456 h -15.47575 c -10.01785,0 -15.47576,-0.39892 -15.47576,-1.13121 z m 42.3061,0.0117 c 0,-0.61647 1.22865,-3.54537 2.73022,-6.508652 l 2.73022,-5.38834 h 17.33814 c 16.19706,0 17.33813,0.13324 17.33813,2.023278 0,2.982494 -4.19124,7.788614 -8.28308,9.498314 -4.36598,1.82424 -31.85363,2.14772 -31.85363,0.37475 z m 54.53136,-0.48744 c -3.36132,-1.46126 -7.87343,-7.216307 -7.88192,-10.053089 0,-1.02839 4.18456,-1.355968 17.33399,-1.355968 h 17.33813 l 2.73022,5.387845 c 1.50158,2.963282 2.73022,5.892182 2.73022,6.508652 0,1.79094 -27.98254,1.36798 -32.25064,-0.48744 z m 40.95136,-3.54486 c -1.77956,-2.833953 -3.24493,-5.762831 -3.25626,-6.508654 -0.0162,-1.012271 3.35667,-1.355967 13.30495,-1.355967 h 13.32548 l 5.65803,5.729205 c 3.11195,3.151056 5.65803,6.079916 5.65803,6.508666 0,0.42868 -7.07719,0.77942 -15.72725,0.77942 h -15.72725 z m 41.98241,-0.5687 c -3.44718,-3.117804 -6.25405,-6.034857 -6.23747,-6.482326 0.0162,-0.44747 7.37429,-0.813595 16.35067,-0.813595 h 16.32064 l 8.0868,5.456932 c 4.44769,3.001319 8.0868,5.930229 8.0868,6.508649 0,0.63833 -7.14251,1.04139 -18.16997,1.02544 l -18.16997,-0.0246 -6.2675,-5.66874 z m 46.69605,0.0246 c -5.20763,-3.132272 -9.47836,-6.008532 -9.49049,-6.391677 -0.0121,-0.383347 9.3748,-0.890792 20.85994,-1.128138 l 20.88189,-0.431511 13.28847,6.226113 c 7.30866,3.424363 13.28846,6.494793 13.28846,6.823203 0,0.3284 -11.10593,0.59703 -24.67996,0.59703 h -24.67987 l -9.46844,-5.69506 z m 71.46308,4.64479 c -7.6185,-2.44016 -29.80397,-12.477064 -29.31787,-13.263629 0.2969,-0.480112 2.3413,-0.874926 4.54335,-0.877353 2.20216,-0.002 12.54653,-1.31115 22.98748,-2.908245 10.44094,-1.597126 20.44797,-2.89057 22.23784,-2.874339 2.57945,0.02457 52.41233,14.632747 59.12022,17.332106 1.15088,0.46313 0.67469,0.96813 -1.62717,1.7253 -4.23037,1.39151 -73.8868,2.16554 -77.94385,0.86616 z M 84.464806,96.553966 C 71.432485,93.029215 51.312962,83.132797 53.385275,81.266553 53.863789,80.835566 73.049137,76.959898 96.019214,72.653901 l 41.763776,-7.829071 7.49139,4.942759 c 4.12026,2.718539 10.10006,6.024035 13.28847,7.345561 3.18841,1.321535 5.79707,2.763235 5.79707,3.203767 0,1.04008 -2.06007,1.668721 -33.62803,10.26132 -30.47229,8.294371 -35.360066,8.925692 -46.267084,5.975729 z M 721.39145,97.88345 c -6.84501,-1.601059 -61.69076,-16.636667 -62.07027,-17.016192 -0.25049,-0.250511 3.4579,-2.414209 8.24101,-4.808163 4.78302,-2.393995 10.92947,-5.889057 13.65868,-7.76683 l 4.9622,-3.414092 41.46921,7.836816 c 22.80808,4.310265 41.8741,8.187238 42.3689,8.615564 0.49479,0.428276 -1.94591,2.483732 -5.42383,4.567694 -14.15277,8.48018 -34.29868,14.068552 -43.2059,11.985203 z M 256.75495,85.742173 c -0.72029,-0.445173 7.49493,-4.843091 19.13459,-10.243441 l 20.3969,-9.463298 15.05863,0.302974 15.05852,0.302985 -16.4792,10.076042 -16.4791,10.076083 -17.71401,-0.135696 c -9.74279,-0.07463 -18.28212,-0.486877 -18.97633,-0.915932 z m 47.54084,0.04096 c 0,-0.51064 6.22391,-5.150536 13.83089,-10.31088 l 13.83088,-9.382451 11.11888,0.004 c 6.11541,0.003 11.07893,0.371455 11.02998,0.819127 -0.0485,0.447459 -4.79818,5.084816 -10.5539,10.305308 l -10.46501,9.491775 h -14.39586 c -7.91773,9.1e-5 -14.39586,-0.417699 -14.39586,-0.928299 z m 40.32833,-0.555903 c 0.19264,-0.816416 4.09579,-5.453814 8.67302,-10.305349 l 8.32231,-8.821016 5.77969,0.004 c 5.77705,0.004 5.78069,0.0081 7.67513,4.610256 1.04237,2.533434 3.84924,6.742555 6.23746,9.3536 2.38812,2.611076 4.34212,5.173865 4.34212,5.695093 0,0.521218 -9.31059,0.947654 -20.69026,0.947654 -16.95417,0 -20.62686,-0.268138 -20.33947,-1.484344 z m 93.09895,0.837207 c 0,-0.355872 1.92973,-2.839452 4.28832,-5.518957 2.35859,-2.679515 5.331,-7.025739 6.60535,-9.658223 2.29671,-4.744153 2.36658,-4.786392 7.93451,-4.786392 h 5.61738 l 8.93037,9.683393 c 4.91155,5.325903 8.93017,9.96329 8.93017,10.305349 0,0.341937 -9.5189,0.621926 -21.1531,0.621926 -11.63419,0 -21.153,-0.291103 -21.153,-0.647096 z m 41.76378,-9.648869 -10.84776,-10.227737 11.35004,-0.04348 11.35004,-0.04348 14.39131,9.491754 c 7.9152,5.220453 14.40122,9.85788 14.41336,10.305349 0.0121,0.44747 -6.68999,0.798225 -14.89359,0.779487 l -14.91574,-0.03276 z m 35.54593,1.23732 c -7.89447,-4.900125 -14.9482,-9.503899 -15.67497,-10.230609 -1.03863,-1.038674 1.83427,-1.321414 13.42751,-1.321414 h 14.74879 l 19.87794,9.220553 c 10.9328,5.071336 20.1362,9.254904 20.45201,9.29685 0.31571,0.04176 -0.40216,0.495765 -1.59531,1.008499 -1.19325,0.512784 -9.97993,0.93298 -19.52594,0.93384 l -17.35633,10e-4 -14.3537,-8.909286 z m -277.99296,7.252083 c -12.99764,-1.28237 -39.05186,-5.120239 -39.05186,-5.75249 0,-0.415241 13.79013,-4.967604 30.6449,-10.116259 l 30.64481,-9.361215 7.59342,2.621947 c 4.17638,1.442114 10.91986,2.954084 14.98551,3.360022 4.06565,0.405887 6.99458,1.083361 6.50868,1.505448 -2.2876,1.987035 -42.77369,18.443471 -44.999,18.290755 -1.39146,-0.09556 -4.23827,-0.342341 -6.32646,-0.548208 z m 333.56801,-2.407434 c -9.65997,-3.885831 -32.44843,-13.762742 -34.83281,-15.0971 -1.31885,-0.738076 0.39721,-1.223092 6.2762,-1.774 4.45011,-0.417051 11.42406,-1.922792 15.49749,-3.346169 l 7.40615,-2.587918 30.21705,9.360972 c 16.61936,5.148533 30.21706,9.686143 30.21706,10.083546 0,0.992137 -40.88078,6.630824 -46.64529,6.433776 -0.29852,-0.0081 -3.95947,-1.39307 -8.13585,-3.073107 z M 401.48546,82.757095 C 393.51707,80.31087 384.23894,70.657653 381.80319,62.279232 374.46156,37.024655 398.18106,14.728156 423.0384,23.518006 c 7.34861,2.598576 15.66809,11.018812 18.34977,18.57212 2.62151,7.383694 2.02155,18.211384 -1.3779,24.868975 -7.1681,14.038009 -23.04703,20.549529 -38.52481,15.797994 z m -224.6506,-8.937004 c -6.06506,-2.197685 -17.32995,-7.794426 -20.54232,-10.206087 -2.87978,-2.161978 -8.76878,-0.821745 65.28336,-14.857055 l 17.62178,-3.339888 7.12725,5.711414 c 5.93693,4.757521 6.7984,5.842692 5.15848,6.497534 -2.91244,1.162944 -66.8722,18.245654 -68.13998,18.199158 -0.59662,-0.02053 -3.52545,-0.924163 -6.50857,-2.005076 z m 443.6726,-2.899761 c -9.54601,-2.657825 -24.36993,-6.758128 -32.94192,-9.111775 -8.57199,-2.353606 -15.86477,-4.558633 -16.20616,-4.899993 -0.3415,-0.341523 0.57033,-1.454128 2.02579,-2.472709 1.45567,-1.018632 4.45508,-3.485071 6.66552,-5.480955 l 4.01893,-3.628899 41.7928,7.946616 c 22.98606,4.370655 41.87148,8.431389 41.96765,9.023838 0.37557,2.314533 -18.75841,11.72376 -26.17103,12.869655 -2.61635,0.404249 -9.18611,-0.914293 -21.15158,-4.245778 z M 40.459537,69.297741 C 38.085676,68.044231 34.690068,64.605535 32.205174,60.938716 27.627439,54.183419 22.957379,45.508941 23.569071,44.897309 23.778598,44.687802 43.86647,42.884285 68.208584,40.889665 l 44.258476,-3.626472 3.40259,4.383893 c 1.87138,2.411175 5.81396,7.19514 8.76119,10.631096 2.94713,3.435905 5.1595,6.43058 4.91629,6.65476 -0.8741,0.805515 -76.918862,12.58918 -80.940623,12.54228 -2.262727,-0.02457 -5.928939,-1.006204 -8.14697,-2.177481 z M 732.78154,65.400432 c -19.98695,-3.238543 -37.01262,-6.123379 -37.83495,-6.41074 -1.03014,-0.359977 0.16655,-2.287189 3.84833,-6.198159 2.93884,-3.121646 6.90872,-7.963382 8.82197,-10.759462 3.14634,-4.598192 3.81476,-5.037915 6.99943,-4.603976 1.9365,0.264032 21.80878,1.964444 44.16069,3.779076 22.35202,1.814631 40.856,3.515317 41.12003,3.779318 0.89595,0.89596 -3.63648,9.643287 -8.23686,15.89667 -5.36498,7.292724 -11.14365,10.692629 -17.88512,10.522773 -2.55942,-0.06442 -21.00647,-2.767007 -40.99352,-6.0055 z M 277.92252,56.876951 C 258.893,51.64585 243.75034,36.083807 238.65516,16.521713 237.76669,13.110816 237.03982,9.2022618 237.03982,7.8360402 V 5.3520153 h 84.06998 c 82.62362,0 84.1073,0.03691 86.23958,2.1695224 1.19325,1.1932407 2.16949,2.5495823 2.16949,3.0140613 0,0.464488 -3.32583,1.701312 -7.39088,2.748481 -17.92131,4.616606 -30.61932,20.060478 -30.9687,37.665347 l -0.15006,7.548676 -43.93338,-0.09303 c -32.83775,-0.06967 -45.25161,-0.455508 -49.15344,-1.528089 z m 174.68595,-6.496017 c -1.405,-18.577986 -14.35066,-33.507657 -32.51305,-37.495865 -3.4306,-0.753326 -6.23747,-1.780148 -6.23747,-2.281819 0,-0.501671 0.97635,-1.8884716 2.1696,-3.0817123 2.13217,-2.1322181 3.61595,-2.1695224 86.23947,-2.1695224 h 84.07008 v 3.0264079 c 0,4.8481278 -3.08223,15.3375608 -6.2587,21.2997698 -6.66178,12.504147 -22.28093,24.47767 -36.07774,27.656804 -2.8823,0.664186 -22.288,1.128664 -47.81447,1.144419 l -42.9632,0.02457 z M 143.20682,53.231377 C 139.2961,50.813396 127.47755,38.535654 127.47755,36.891 c 0,-0.640937 1.0984,-1.171671 2.44081,-1.179427 1.3424,-0.0081 22.69886,-1.712831 47.45882,-3.789117 24.76005,-2.076287 46.51423,-3.778459 48.34274,-3.782636 2.6656,-0.0081 3.67814,0.691368 5.10761,3.517946 0.9807,1.939023 2.63658,4.848209 3.67987,6.464821 1.04328,1.616602 1.63111,3.205082 1.3062,3.529959 -0.87744,0.877505 -80.79369,13.599723 -85.39863,13.59501 -2.17455,-0.002 -5.41827,-0.90953 -7.20815,-2.016179 z m 508.21665,-0.778009 c -8.65106,-1.435057 -26.44061,-4.334241 -39.5324,-6.442675 -13.09168,-2.108434 -23.97332,-4.00363 -24.18122,-4.211619 -0.20791,-0.207869 1.22854,-3.359932 3.19245,-7.004413 3.1434,-5.83351 3.95997,-6.628357 6.82489,-6.643566 2.9358,-0.01638 92.54671,7.190793 97.54461,7.84436 1.73871,0.227547 1.06644,1.470935 -4.05291,7.497094 -11.0403,12.995816 -12.91957,13.419006 -39.79542,8.960819 z M 28.389097,34.166141 c -8.968696,-3.246734 -12.6432,-9.4041 -12.6432,-21.185875 V 5.3520153 h 41.676609 41.676609 l 1.860465,5.6950527 c 1.02316,3.132274 3.26333,8.823018 4.97818,12.646083 1.71484,3.823064 2.99152,7.069313 2.8371,7.213828 -0.15461,0.144727 -14.925239,1.047947 -32.824,2.007584 -17.898762,0.959626 -34.983989,1.973546 -37.967116,2.25311 -3.200137,0.300123 -7.13382,-0.110699 -9.594647,-1.001532 z M 751.78295,33.340786 c -19.67883,-1.154622 -35.95053,-2.27017 -36.15945,-2.47906 -0.20902,-0.209102 1.33715,-4.691599 3.43566,-9.961611 2.0984,-5.270013 4.14482,-10.9242727 4.54739,-12.5649825 l 0.73203,-2.9831172 h 42.34777 42.34776 l -0.69573,8.2308227 c -0.79988,9.462438 -2.77157,14.346323 -7.07709,17.529512 -2.88635,2.133936 -10.29644,4.756621 -12.61387,4.464456 -0.59663,-0.07503 -17.18554,-1.081439 -36.86447,-2.23602 z m -626.11378,-4.19727 c -1.88958,-0.564681 -4.76987,-2.60968 -6.40078,-4.544486 -2.75307,-3.266089 -9.14718,-16.0326293 -9.14718,-18.2633614 0,-0.5758345 23.55953,-0.9836533 56.82564,-0.9836533 h 56.82564 l 0.77056,6.1668317 c 0.4238,3.391796 1.23036,7.376475 1.7925,8.854872 0.56204,1.478357 0.63768,3.036045 0.16817,3.461459 -0.46972,0.425404 -20.37992,1.823237 -44.24493,3.106315 -23.86502,1.283068 -45.58764,2.534414 -48.27246,2.78082 -2.68481,0.246407 -6.42747,-0.01213 -8.31706,-0.578797 z m 518.7033,-1.768054 c -25.05826,-1.448131 -46.10923,-2.807709 -46.77998,-3.02124 -0.88129,-0.280434 -0.80605,-1.981869 0.27101,-6.134938 0.8199,-3.160678 1.49065,-7.348797 1.49065,-9.306972 V 5.3520153 h 56.95063 c 50.31393,0 56.95063,0.1926797 56.95063,1.6542401 0,2.6451541 -7.13079,16.0187756 -9.92431,18.6130046 -3.02014,2.804554 -7.7263,4.740219 -11.02817,4.53588 -1.30357,-0.0808 -22.87239,-1.331496 -47.93066,-2.779678 z M 409.387,0.7119179 406.57245,-2.7838115 214.48809,-3.0638412 22.403629,-3.3438708 19.161729,-6.5857614 C 15.913761,-9.8337295 13.898785,-15.31706 15.187192,-17.40168 c 0.464559,-0.751798 62.678229,-1.103534 192.356578,-1.087425 184.87824,0.02457 191.82802,0.09556 196.13636,2.052179 2.45658,1.115598 5.24616,3.141334 6.19894,4.501689 l 1.73244,2.4733265 3.02155,-3.0501825 c 6.32241,-6.382242 -6.5288,-6.000827 202.18563,-6.000827 h 192.18276 l -0.61827,4.610287 c -0.44312,3.304424 -1.56386,5.4552891 -3.95664,7.593453 l -3.33847,2.9831068 H 610.79804 c -118.10797,0 -191.32261,0.3923672 -193.01186,1.034781 -1.49693,0.5691605 -3.36588,2.26427436 -4.15323,3.7669412 l -1.43149,2.7321197 z"
       id="path56"
       inkscape:connector-curvature="0"
       sodipodi:nodetypes="ccscccscsccccsccccccsscccssccscccccssccscccccsscccccsccscccsccssccccsccsccccccsccsscccccccccccscsccsssscscccsccccccccccccccscccscccccccsccsscsccsccsssccccsccccccscccccccccsscccccccccccssccccsccccsscscccccccccscccccsccccccccccccsssccccscscscccccccsssscsscccccscscssccccsccccsccsccccscscccsscccccscccsssccccsscccccscsscccccccccccccccsccccscccc" />
  </g>
</svg>
