<?xml version="1.0" encoding="UTF-8" standalone="no"?>
<!-- Created with Inkscape (http://www.inkscape.org/) -->

<svg
   xmlns:dc="http://purl.org/dc/elements/1.1/"
   xmlns:cc="http://creativecommons.org/ns#"
   xmlns:rdf="http://www.w3.org/1999/02/22-rdf-syntax-ns#"
   xmlns:svg="http://www.w3.org/2000/svg"
   xmlns="http://www.w3.org/2000/svg"
   xmlns:sodipodi="http://sodipodi.sourceforge.net/DTD/sodipodi-0.dtd"
   xmlns:inkscape="http://www.inkscape.org/namespaces/inkscape"
   width="210mm"
   height="210mm"
   viewBox="0 0 210 210"
   version="1.1"
   id="svg8"
   inkscape:version="0.92.5 (2060ec1f9f, 2020-04-08)"
   sodipodi:docname="weyland-yutani-corp-wings.svg"
   inkscape:export-filename="/data/projects/programming/alien-rpg-tools/frontend/src/assets/icons/favicon_32x32.png"
   inkscape:export-xdpi="3.870476"
   inkscape:export-ydpi="3.870476">
  <defs
     id="defs2" />
  <sodipodi:namedview
     id="base"
     pagecolor="#ffffff"
     bordercolor="#666666"
     borderopacity="1.0"
     inkscape:pageopacity="0.0"
     inkscape:pageshadow="2"
     inkscape:zoom="1.4"
     inkscape:cx="344.98452"
     inkscape:cy="-10.361872"
     inkscape:document-units="mm"
     inkscape:current-layer="layer1"
     showgrid="false"
     fit-margin-top="0"
     fit-margin-left="0"
     fit-margin-right="0"
     fit-margin-bottom="0"
     inkscape:window-width="3840"
     inkscape:window-height="2062"
     inkscape:window-x="0"
     inkscape:window-y="0"
     inkscape:window-maximized="1" />
  <metadata
     id="metadata5">
    <rdf:RDF>
      <cc:Work
         rdf:about="">
        <dc:format>image/svg+xml</dc:format>
        <dc:type
           rdf:resource="http://purl.org/dc/dcmitype/StillImage" />
        <dc:title></dc:title>
      </cc:Work>
    </rdf:RDF>
  </metadata>
  <g
     inkscape:label="Ebene 1"
     inkscape:groupmode="layer"
     id="layer1"
     transform="translate(-6.867954,59.855479)">
    <path
       style="fill:#000000;stroke-width:0.26458332"
       d="m 43.550514,60.183396 c -2.419,-0.25597 -3.220264,-0.41977 -3.008481,-0.61503 0.126695,-0.11681 1.242388,-0.51161 2.479315,-0.87734 1.236927,-0.36573 4.428257,-1.33087 7.091843,-2.14474 l 4.842886,-1.47978 3.888364,0.63623 c 2.138601,0.34993 4.873246,0.72131 6.076989,0.82529 1.203746,0.10398 2.243225,0.2774 2.309956,0.38538 0.06673,0.10797 -1.513465,0.89604 -3.511542,1.75126 l -3.632872,1.55495 -7.805208,0.0309 c -4.292864,0.017 -8.221927,-0.0132 -8.73125,-0.0671 z m 19.843749,-0.0524 c 0,-0.12149 1.458516,-0.87465 3.241146,-1.6737 l 3.241146,-1.4528 4.960937,0.11143 c 2.728515,0.0613 4.959868,0.18938 4.958561,0.28464 -0.0013,0.0953 -1.026919,0.79828 -2.279139,1.56226 l -2.276763,1.38906 h -5.922944 c -3.257619,0 -5.922944,-0.0994 -5.922944,-0.22089 z m 15.08125,-0.0103 c 0,-0.12717 0.929634,-0.84155 2.065856,-1.5875 l 2.065858,-1.35629 h 3.887266 c 2.137998,0 3.887269,0.10712 3.887269,0.23804 0,0.13092 -0.664437,0.84529 -1.476531,1.5875 l -1.476528,1.34946 h -4.476597 c -2.462125,0 -4.476593,-0.10405 -4.476593,-0.23122 z m 12.435416,-0.0447 c 0,-0.15175 0.552074,-0.86613 1.22683,-1.5875 l 1.226831,-1.3116 h 3.403377 c 1.871857,0 3.403373,0.0707 3.403373,0.1571 0,0.0864 -0.384996,0.80077 -0.855556,1.5875 l -0.85557,1.4304 h -3.774642 c -2.443419,0 -3.774643,-0.0973 -3.774643,-0.27591 z m 10.318741,0.003 c 0,-0.15036 0.29967,-0.86474 0.66592,-1.5875 l 0.66591,-1.31425 h 4.22888 c 3.95057,0 4.22889,0.0325 4.22889,0.49349 0,0.72745 -1.02227,1.89969 -2.0203,2.3167 -1.06489,0.44494 -7.7693,0.52384 -7.7693,0.0914 z m 13.30054,-0.11889 c -0.81985,-0.35641 -1.92038,-1.7601 -1.92245,-2.45201 -8e-4,-0.25083 1.02064,-0.33073 4.22788,-0.33073 h 4.22887 l 0.66591,1.31413 c 0.36626,0.72276 0.66592,1.43714 0.66592,1.5875 0,0.43682 -6.82512,0.33366 -7.86613,-0.11889 z m 9.98831,-0.86463 c -0.43406,-0.69122 -0.79147,-1.40559 -0.79424,-1.5875 -0.004,-0.2469 0.81872,-0.33073 3.24516,-0.33073 h 3.25018 l 1.38003,1.39739 c 0.75901,0.76856 1.38002,1.48293 1.38002,1.5875 0,0.10456 -1.72618,0.19011 -3.83597,0.19011 h -3.83597 z m 10.23975,-0.13871 c -0.84078,-0.76045 -1.52539,-1.47194 -1.52135,-1.58108 0.004,-0.10914 1.79865,-0.19844 3.98803,-0.19844 h 3.9807 l 1.97243,1.33098 c 1.08483,0.73204 1.97243,1.44642 1.97243,1.5875 0,0.15569 -1.7421,0.254 -4.43178,0.25011 l -4.43177,-0.006 -1.52869,-1.38264 z m 11.38947,0.006 c -1.27017,-0.76398 -2.31182,-1.46552 -2.31478,-1.55897 -0.003,-0.0935 2.28658,-0.21727 5.08786,-0.27516 l 5.09323,-0.10525 3.24114,1.51859 c 1.78263,0.83522 3.24115,1.58412 3.24115,1.66422 0,0.0801 -2.70882,0.14562 -6.0196,0.14562 h -6.01959 l -2.30941,-1.38906 z m 17.43031,1.13289 c -1.85821,-0.59517 -7.26939,-3.04323 -7.15082,-3.23508 0.0724,-0.1171 0.57105,-0.2134 1.10816,-0.21399 0.53712,-5.3e-4 3.06017,-0.3198 5.60678,-0.70934 2.54662,-0.38955 4.9874,-0.70503 5.42396,-0.70107 0.62914,0.006 12.7837,3.56902 14.41979,4.22741 0.28072,0.11296 0.16456,0.23613 -0.39687,0.42081 -1.03181,0.3394 -18.02147,0.52819 -19.011,0.21126 z M 32.001068,57.990406 c -3.178661,-0.85971 -8.085941,-3.27351 -7.580481,-3.7287 0.11672,-0.10512 4.79613,-1.05042 10.398681,-2.10068 l 10.186455,-1.90956 1.827201,1.20557 c 1.004959,0.66307 2.463475,1.4693 3.241146,1.79163 0.777669,0.32233 1.413944,0.67397 1.413944,0.78142 0,0.25368 -0.502476,0.40701 -8.202083,2.5028 -7.432393,2.02305 -8.624563,2.17703 -11.284863,1.45752 z m 155.350472,0.32427 c -1.66953,-0.39051 -15.04676,-4.05779 -15.13933,-4.15036 -0.0611,-0.0611 0.84341,-0.58884 2.01003,-1.17274 1.16661,-0.58391 2.66576,-1.43638 3.33144,-1.89438 l 1.21033,-0.83272 10.1146,1.91145 c 5.56303,1.0513 10.21335,1.99692 10.33404,2.10139 0.12069,0.10446 -0.47462,0.6058 -1.32292,1.11409 -3.45195,2.06837 -8.36566,3.43141 -10.53819,2.92327 z M 74.023747,55.353346 c -0.175688,-0.10858 1.82807,-1.18126 4.667057,-2.49844 l 4.974931,-2.30816 3.672874,0.0739 3.672877,0.0739 -4.019364,2.45761 -4.019365,2.45762 -4.320571,-0.0331 c -2.376313,-0.0182 -4.459111,-0.11875 -4.628439,-0.2234 z m 11.595515,0.01 c 0,-0.12455 1.518047,-1.25625 3.373438,-2.51489 l 3.373437,-2.28844 2.711979,0.001 c 1.491588,8e-4 2.702219,0.0906 2.690286,0.19979 -0.01193,0.10914 -1.17031,1.24022 -2.574179,2.51353 l -2.552485,2.31511 H 89.1305 c -1.931181,2e-5 -3.511238,-0.10188 -3.511238,-0.22642 z m 9.83633,-0.13559 c 0.04705,-0.19913 0.998984,-1.33022 2.115412,-2.51354 l 2.02987,-2.1515 1.409706,10e-4 c 1.40904,10e-4 1.40994,0.002 1.872,1.12447 0.25425,0.61792 0.93886,1.64455 1.52135,2.2814 0.58249,0.63686 1.05908,1.26194 1.05908,1.38907 0,0.12713 -2.27092,0.23114 -5.04649,0.23114 -4.135227,0 -5.03103,-0.0654 -4.960928,-0.36204 z m 22.707428,0.2042 c 0,-0.0868 0.47068,-0.69256 1.04595,-1.34611 0.57527,-0.65355 1.30027,-1.71362 1.6111,-2.3557 0.56016,-1.15713 0.57722,-1.16743 1.93526,-1.16743 h 1.37013 l 2.17815,2.36184 c 1.19798,1.29902 2.17815,2.43011 2.17815,2.51354 0,0.0834 -2.32172,0.15169 -5.15938,0.15169 -2.83765,0 -5.15936,-0.071 -5.15936,-0.15783 z m 10.18644,-2.35342 -2.64583,-2.49461 2.76835,-0.0106 2.76835,-0.0106 3.51014,2.3151 c 1.93057,1.2733 3.51255,2.4044 3.5155,2.51354 0.003,0.10914 -1.63174,0.19469 -3.63265,0.19012 l -3.63802,-0.008 z m 8.6699,0.30179 c -1.92551,-1.19517 -3.64596,-2.31806 -3.82323,-2.49531 -0.25333,-0.25334 0.44738,-0.3223 3.27504,-0.3223 h 3.59734 l 4.84834,2.24895 c 2.66658,1.23693 4.91136,2.25733 4.98839,2.26756 0.077,0.0102 -0.0981,0.12092 -0.38911,0.24598 -0.29104,0.12507 -2.43417,0.22756 -4.7625,0.22777 l -4.23333,2.7e-4 -3.50094,-2.17303 z m -67.804264,1.76883 c -3.170197,-0.31278 -9.524999,-1.24886 -9.524999,-1.40307 0,-0.10128 3.363515,-1.21163 7.474479,-2.46742 l 7.474478,-2.28326 1.852084,0.63951 c 1.018646,0.35174 2.663428,0.72052 3.65507,0.81953 0.991643,0.099 1.706018,0.26424 1.5875,0.36719 -0.557966,0.48465 -10.432785,4.49848 -10.975554,4.46123 -0.33936,-0.0233 -1.033735,-0.0835 -1.543058,-0.13371 z m 81.359364,-0.58719 c -2.35612,-0.94778 -7.91437,-3.35682 -8.49595,-3.68228 -0.32168,-0.18002 0.0969,-0.29832 1.5308,-0.43269 1.08544,-0.10172 2.78641,-0.46898 3.77994,-0.81615 l 1.80642,-0.63121 7.37012,2.2832 c 4.05357,1.25576 7.37013,2.36251 7.37013,2.45944 0,0.24199 -9.97108,1.6173 -11.37708,1.56924 -0.0728,-0.002 -0.96573,-0.33978 -1.98438,-0.74955 z m -41.25002,0.0633 c -1.94354,-0.59665 -4.20654,-2.95113 -4.80062,-4.99468 -1.79068,-6.15975 3.99466,-11.59801 10.05751,-9.45411 1.79239,0.63381 3.82155,2.68756 4.47564,4.52986 0.63939,1.80093 0.49307,4.44187 -0.33609,6.0657 -1.74835,3.42396 -5.62131,5.01216 -9.39644,3.85323 z m -54.793718,-2.17979 c -1.479296,-0.53603 -4.22689,-1.90111 -5.010398,-2.48933 -0.70239,-0.52732 -2.138754,-0.20043 15.923039,-3.62373 l 4.298056,-0.81462 1.738381,1.39305 c 1.448043,1.16039 1.658181,1.42507 1.258192,1.58479 -0.710359,0.28365 -16.31057,4.45023 -16.61977,4.43889 -0.145521,-0.005 -0.859896,-0.22541 -1.5875,-0.48905 z M 162.7453,51.738206 c -2.32834,-0.64826 -5.94397,-1.64835 -8.03474,-2.22242 -2.09077,-0.57406 -3.86952,-1.11188 -3.95279,-1.19514 -0.0833,-0.0833 0.13909,-0.35467 0.49411,-0.60311 0.35503,-0.24845 1.08661,-0.85003 1.62575,-1.33684 l 0.98025,-0.88511 10.19353,1.93823 c 5.60644,1.06603 10.21272,2.05647 10.23617,2.20097 0.0916,0.56453 -4.5753,2.8595 -6.38328,3.13899 -0.63816,0.0986 -2.24055,-0.223 -5.159,-1.03557 z M 21.267917,51.342446 c -0.579,-0.30574 -1.40722,-1.14446 -2.01329,-2.03882 -1.11654,-1.64766 -2.25559,-3.76342 -2.10641,-3.9126 0.0511,-0.0511 4.95067,-0.49099 10.88787,-0.97749 l 10.79492,-0.88452 0.829918,1.06926 c 0.456457,0.5881 1.418064,1.75494 2.136905,2.59299 0.718844,0.83804 1.25844,1.56846 1.199107,1.62314 -0.213175,0.19647 -18.76099,3.07058 -19.74194,3.05914 -0.55189,-0.006 -1.44608,-0.24542 -1.98708,-0.5311 z m 168.861753,-0.95058 c -4.87495,-0.7899 -9.02763,-1.49353 -9.22819,-1.56362 -0.25127,-0.0878 0.0406,-0.55786 0.93862,-1.51177 0.7168,-0.76139 1.68508,-1.94232 2.15173,-2.6243 0.76742,-1.12153 0.93046,-1.22878 1.70721,-1.12294 0.47232,0.0644 5.31931,0.47914 10.77109,0.92174 5.45179,0.4426 9.96503,0.85741 10.02942,0.9218 0.21853,0.21853 -0.88696,2.35206 -2.00902,3.8773 -1.30855,1.77874 -2.71801,2.608 -4.3623,2.56657 -0.62426,-0.0157 -5.12361,-0.67489 -9.99856,-1.46478 z M 79.186646,48.312936 c -4.641426,-1.2759 -8.334792,-5.07158 -9.577561,-9.8429 -0.216694,-0.83194 -0.393989,-1.78526 -0.393989,-2.11849 v -0.60587 h 20.505208 c 20.152436,0 20.514316,0.009 21.034376,0.52916 0.29105,0.29104 0.52917,0.62186 0.52917,0.73515 0,0.11329 -0.81121,0.41496 -1.8027,0.67037 -4.3711,1.12602 -7.46824,4.89288 -7.55347,9.18682 l -0.0366,1.84117 -10.715618,-0.0227 c -8.009355,-0.017 -11.037186,-0.1111 -11.988866,-0.37271 z m 42.607024,-1.58442 c -0.3427,-4.53129 -3.50022,-8.17273 -7.93013,-9.14548 -0.83675,-0.18374 -1.52136,-0.43419 -1.52136,-0.55655 0,-0.12236 0.23813,-0.46061 0.52917,-0.75165 0.52006,-0.52006 0.88194,-0.52916 21.03436,-0.52916 h 20.50521 v 0.73816 c 0,1.18249 -0.75176,3.74093 -1.52652,5.19515 -1.62485,3.04984 -5.43448,5.97026 -8.79959,6.74567 -0.70303,0.162 -5.4362,0.27529 -11.66226,0.27913 l -10.479,0.006 z m -75.465031,0.69524 c -0.953846,-0.58976 -3.836458,-3.58438 -3.836458,-3.98552 0,-0.15633 0.267891,-0.28578 0.595313,-0.28767 0.327421,-0.002 5.536406,-0.41777 11.57552,-0.92419 6.039114,-0.50642 11.345108,-0.92159 11.7911,-0.92261 0.650131,-0.002 0.897107,0.16863 1.245772,0.85805 0.239183,0.47294 0.64308,1.18251 0.897546,1.57681 0.254466,0.3943 0.397833,0.78174 0.31859,0.86098 -0.214027,0.21403 -19.706102,3.31706 -20.829274,3.31591 -0.530397,-5.3e-4 -1.321546,-0.22184 -1.758109,-0.49176 z m 123.957281,-0.18976 c -2.11005,-0.35002 -6.44905,-1.05715 -9.64221,-1.57141 -3.19316,-0.51426 -5.84725,-0.97651 -5.89797,-1.02724 -0.0507,-0.0507 0.29967,-0.81951 0.77866,-1.70842 0.7667,-1.42283 0.96587,-1.6167 1.66465,-1.62041 0.71605,-0.004 22.57273,1.75388 23.79174,1.91329 0.42408,0.0555 0.26012,0.35877 -0.98853,1.82859 -2.69279,3.16976 -3.15117,3.27298 -9.70634,2.1856 z M 18.323867,42.773626 c -2.18752,-0.7919 -3.08377,-2.29372 -3.08377,-5.16737 v -1.86058 h 10.16519 10.165201 l 0.45376,1.38906 c 0.24957,0.76398 0.79597,2.15199 1.21423,3.08446 0.41826,0.93247 0.729648,1.72425 0.69198,1.7595 -0.03767,0.0353 -3.64036,0.2556 -8.00598,0.48966 -4.365631,0.23406 -8.532821,0.48136 -9.260421,0.54955 -0.78054,0.0732 -1.73998,-0.027 -2.34019,-0.24428 z m 176.440363,-0.20131 c -4.79979,-0.28162 -8.76857,-0.55371 -8.81952,-0.60466 -0.051,-0.051 0.32614,-1.14431 0.83797,-2.4297 0.51183,-1.28539 1.01095,-2.6645 1.10914,-3.06468 l 0.17855,-0.7276 h 10.32889 10.32889 l -0.1697,2.00755 c -0.19509,2.30795 -0.67601,3.49916 -1.72615,4.27556 -0.70399,0.52048 -2.51136,1.16017 -3.07659,1.08891 -0.14552,-0.0183 -4.19168,-0.26377 -8.99148,-0.54538 z M 42.051097,41.548576 c -0.460875,-0.13773 -1.163418,-0.63652 -1.561203,-1.10843 -0.671491,-0.79662 -2.231046,-3.91046 -2.231046,-4.45455 0,-0.14045 5.746316,-0.23992 13.860139,-0.23992 h 13.860136 l 0.187931,1.50413 c 0.103362,0.82728 0.300099,1.79917 0.437192,2.15976 0.137097,0.36058 0.155544,0.74051 0.04099,0.84427 -0.114549,0.10376 -4.970769,0.4447 -10.791602,0.75765 -5.820833,0.31295 -11.119114,0.61816 -11.773958,0.67826 -0.654844,0.0601 -1.567706,-0.003 -2.028584,-0.14117 z m 126.515033,-0.43124 c -6.11188,-0.35321 -11.24635,-0.68482 -11.40994,-0.7369 -0.21495,-0.0684 -0.19661,-0.48339 0.0661,-1.49635 0.19997,-0.77091 0.36358,-1.79242 0.36358,-2.27003 v -0.86838 h 13.89063 c 12.27189,0 13.89062,0.047 13.89062,0.40348 0,0.64517 -1.73924,3.90708 -2.42062,4.53983 -0.73662,0.68405 -1.88449,1.15617 -2.68983,1.10633 -0.31795,-0.0197 -5.57872,-0.32476 -11.69059,-0.67798 z m -57.31446,-6.50341 -0.68647,-0.85263 -46.850621,-0.0683 -46.850622,-0.0683 -0.79072,-0.79072 c -0.79219,-0.7922 -1.28366,-2.12962 -0.96942,-2.63807 0.11333,-0.18337 15.287621,-0.26916 46.917,-0.26523 45.092993,0.006 46.788093,0.0233 47.838913,0.50054 0.59918,0.2721 1.27957,0.76619 1.51197,1.09799 l 0.42254,0.60326 0.73699,-0.74396 c 1.54207,-1.55667 -1.59242,-1.46364 49.31436,-1.46364 h 46.87459 l -0.1508,1.12448 c -0.10808,0.80597 -0.38143,1.33058 -0.96505,1.85209 l -0.81426,0.7276 H 160.3771 c -28.80728,0 -46.66478,0.0957 -47.07681,0.25239 -0.36512,0.13882 -0.82097,0.55227 -1.013,0.91878 l -0.34915,0.66638 z"
       id="path56"
       inkscape:connector-curvature="0"
       sodipodi:nodetypes="ccscccscsccccsccccccsscccssccscccccssccscccccsscccccsccscccsccssccccsccsccccccsccsscccccccccccscsccsssscscccsccccccccccccccscccscccccccsccsscsccsccsssccccsccccccscccccccccsscccccccccccssccccsccccsscscccccccccscccccsccccccccccccsssccccscscscccccccsssscsscccccscscssccccsccccsccsccccscscccsscccccscccsssccccsscccccscsscccccccccccccccsccccscccc" />
  </g>
</svg>
